<?xml version="1.0" standalone="no"?>
<!DOCTYPE svg PUBLIC "-//W3C//DTD SVG 20010904//EN"
 "http://www.w3.org/TR/2001/REC-SVG-20010904/DTD/svg10.dtd">
<svg version="1.0" xmlns="http://www.w3.org/2000/svg"
 width="170.000000pt" height="170.000000pt" viewBox="0 0 170.000000 170.000000"
 preserveAspectRatio="xMidYMid meet">
<metadata>
Created by potrace 1.16, written by Peter Selinger 2001-2019
</metadata>
<g transform="translate(0.000000,170.000000) scale(0.100000,-0.100000)"
fill="#000000" stroke="none">
<path d="M587 1311 c-15 -10 -35 -27 -43 -39 -13 -19 -12 -23 21 -47 l34 -27
30 21 c34 24 45 26 59 8 16 -19 -4 -44 -88 -108 -69 -52 -71 -55 -68 -94 l3
-40 135 0 135 0 0 45 0 45 -55 6 c-30 3 -49 6 -42 7 6 1 30 20 52 42 36 36 40
45 40 88 -1 77 -41 112 -132 112 -35 0 -63 -7 -81 -19z"/>
<path d="M865 1318 c-3 -7 -4 -86 -3 -173 l3 -160 63 -3 c130 -6 221 33 252
108 17 42 8 134 -17 168 -38 51 -79 66 -190 70 -82 3 -104 1 -108 -10z"/>
<path d="M550 665 l0 -45 53 0 52 -1 -27 -24 c-44 -38 -35 -85 16 -85 40 0 61
-14 53 -34 -8 -21 -51 -21 -83 1 -25 16 -26 15 -61 -19 l-36 -36 40 -26 c110
-73 248 -25 248 87 0 32 -7 45 -34 69 l-34 31 31 26 c26 21 32 33 32 64 l0 37
-125 0 -125 0 0 -45z"/>
<path d="M860 540 l0 -172 108 3 c126 5 169 24 203 92 26 50 22 134 -7 174
-45 60 -67 68 -190 71 l-114 4 0 -172z"/>
</g>
</svg>
