<svg xmlns="http://www.w3.org/2000/svg" xmlns:xlink="http://www.w3.org/1999/xlink" viewBox="0 0 37.23 50.45"><defs><style>.a{fill:none;}.b{clip-path:url(#a);}.c{fill:#56bf60;}</style><clipPath id="a" transform="translate(-23.48 -15.35)"><rect class="a" x="-12" y="-12" width="104" height="104"/></clipPath></defs><title>marker-green</title><g class="b"><path class="c" d="M60.71,34.36a26.28,26.28,0,0,1-3,11.2A190.43,190.43,0,0,1,42.3,65.8s-9.88-9.35-16.2-20.42a26.18,26.18,0,0,1-2.62-10.78c0-10.3,8.33-19.25,18.62-19.25s18.61,8.72,18.61,19m-8.85-1A9.6,9.6,0,1,0,42.27,43a9.59,9.59,0,0,0,9.59-9.59" transform="translate(-23.48 -15.35)"/></g></svg>