<svg id="svg" version="1.1" xmlns="http://www.w3.org/2000/svg" xmlns:xlink="http://www.w3.org/1999/xlink" width="400" height="400" viewBox="0, 0, 400,400"><g id="svgg"><path id="path0" d="M194.600 21.200 C 194.464 21.420,193.463 21.600,192.376 21.600 C 191.289 21.600,190.400 21.780,190.400 22.000 C 190.400 22.220,189.860 22.400,189.200 22.400 C 188.540 22.400,188.000 22.580,188.000 22.800 C 188.000 23.020,187.595 23.204,187.100 23.209 C 186.605 23.214,185.750 23.570,185.200 24.000 C 184.650 24.430,183.975 24.786,183.700 24.791 C 183.425 24.796,183.200 24.980,183.200 25.200 C 183.200 25.420,182.840 25.600,182.400 25.600 C 181.960 25.600,181.600 25.780,181.600 26.000 C 181.600 26.220,181.403 26.400,181.162 26.400 C 180.921 26.400,180.246 26.740,179.662 27.156 C 179.078 27.572,178.510 27.898,178.400 27.881 C 178.172 27.846,175.903 29.257,175.600 29.623 C 175.490 29.756,174.815 30.119,174.100 30.430 C 173.385 30.741,172.800 31.131,172.800 31.298 C 172.800 31.464,172.530 31.600,172.200 31.600 C 171.870 31.600,171.600 31.780,171.600 32.000 C 171.600 32.220,171.240 32.400,170.800 32.400 C 170.360 32.400,170.000 32.580,170.000 32.800 C 170.000 33.020,169.764 33.200,169.475 33.200 C 169.187 33.200,168.564 33.560,168.092 34.000 C 167.620 34.440,166.956 34.800,166.617 34.800 C 166.278 34.800,166.000 34.980,166.000 35.200 C 166.000 35.420,165.764 35.600,165.475 35.600 C 165.187 35.600,164.564 35.960,164.092 36.400 C 163.620 36.840,162.945 37.200,162.593 37.200 C 162.241 37.200,162.064 37.380,162.200 37.600 C 162.336 37.820,162.116 38.000,161.712 38.000 C 161.307 38.000,160.717 38.360,160.400 38.800 C 160.083 39.240,159.503 39.600,159.112 39.600 C 158.720 39.600,158.400 39.780,158.400 40.000 C 158.400 40.220,158.080 40.400,157.688 40.400 C 157.297 40.400,156.717 40.760,156.400 41.200 C 156.083 41.640,155.503 42.000,155.112 42.000 C 154.720 42.000,154.400 42.180,154.400 42.400 C 154.400 42.620,154.055 42.800,153.633 42.800 C 153.212 42.800,152.807 42.942,152.733 43.116 C 152.660 43.290,151.610 43.944,150.400 44.568 C 149.190 45.192,148.110 45.815,148.000 45.951 C 147.678 46.352,146.287 47.192,145.100 47.702 C 144.495 47.962,144.000 48.316,144.000 48.488 C 144.000 48.659,143.730 48.800,143.400 48.800 C 143.070 48.800,142.800 48.980,142.800 49.200 C 142.800 49.420,142.480 49.600,142.088 49.600 C 141.697 49.600,141.117 49.960,140.800 50.400 C 140.483 50.840,139.903 51.200,139.512 51.200 C 139.120 51.200,138.800 51.380,138.800 51.600 C 138.800 51.820,138.480 52.000,138.088 52.000 C 137.697 52.000,137.117 52.360,136.800 52.800 C 136.483 53.240,135.903 53.600,135.512 53.600 C 135.120 53.600,134.800 53.780,134.800 54.000 C 134.800 54.220,134.429 54.400,133.976 54.400 C 133.523 54.400,133.264 54.580,133.400 54.800 C 133.536 55.020,133.367 55.200,133.024 55.200 C 132.681 55.200,132.400 55.380,132.400 55.600 C 132.400 55.820,132.040 56.000,131.600 56.000 C 131.160 56.000,130.800 56.180,130.800 56.400 C 130.800 56.620,130.564 56.800,130.275 56.800 C 129.987 56.800,129.364 57.160,128.892 57.600 C 128.420 58.040,127.846 58.400,127.617 58.400 C 127.388 58.400,127.200 58.580,127.200 58.800 C 127.200 59.020,126.917 59.200,126.571 59.200 C 126.226 59.200,125.673 59.470,125.343 59.800 C 125.013 60.130,124.396 60.400,123.971 60.400 C 123.547 60.400,123.200 60.558,123.200 60.751 C 123.200 60.945,122.660 61.327,122.000 61.600 C 121.340 61.873,120.800 62.255,120.800 62.449 C 120.800 62.642,120.440 62.800,120.000 62.800 C 119.560 62.800,119.200 62.980,119.200 63.200 C 119.200 63.420,118.964 63.600,118.675 63.600 C 118.387 63.600,117.802 63.915,117.375 64.301 C 116.949 64.686,115.745 65.434,114.700 65.963 C 113.655 66.493,112.800 67.034,112.800 67.165 C 112.800 67.297,112.215 67.660,111.500 67.972 C 110.785 68.284,109.909 68.868,109.553 69.270 C 109.197 69.671,108.612 70.000,108.253 70.000 C 107.894 70.000,107.600 70.180,107.600 70.400 C 107.600 70.620,107.280 70.800,106.888 70.800 C 106.497 70.800,105.917 71.160,105.600 71.600 C 105.283 72.040,104.703 72.400,104.312 72.400 C 103.920 72.400,103.600 72.580,103.600 72.800 C 103.600 73.020,103.229 73.200,102.776 73.200 C 102.323 73.200,102.064 73.380,102.200 73.600 C 102.336 73.820,102.167 74.000,101.824 74.000 C 101.481 74.000,101.200 74.180,101.200 74.400 C 101.200 74.620,100.840 74.800,100.400 74.800 C 99.960 74.800,99.600 74.980,99.600 75.200 C 99.600 75.420,99.280 75.600,98.888 75.600 C 98.497 75.600,97.922 75.953,97.611 76.385 C 97.299 76.817,96.564 77.276,95.976 77.405 C 95.389 77.534,94.531 77.991,94.071 78.420 C 93.610 78.849,92.956 79.200,92.617 79.200 C 92.278 79.200,92.000 79.380,92.000 79.600 C 92.000 79.820,91.764 80.000,91.475 80.000 C 91.187 80.000,90.594 80.315,90.158 80.700 C 89.153 81.588,87.209 82.783,86.300 83.071 C 85.915 83.193,85.600 83.452,85.600 83.647 C 85.600 83.841,85.240 84.000,84.800 84.000 C 84.360 84.000,84.000 84.180,84.000 84.400 C 84.000 84.620,83.764 84.800,83.475 84.800 C 83.187 84.800,82.564 85.160,82.092 85.600 C 81.620 86.040,80.956 86.400,80.617 86.400 C 80.278 86.400,80.000 86.580,80.000 86.800 C 80.000 87.020,79.730 87.200,79.400 87.200 C 79.070 87.200,78.800 87.380,78.800 87.600 C 78.800 87.820,78.530 88.000,78.200 88.000 C 77.870 88.000,77.600 88.180,77.600 88.400 C 77.600 88.620,77.330 88.800,77.000 88.800 C 76.670 88.800,76.400 88.980,76.400 89.200 C 76.400 89.420,76.164 89.600,75.875 89.600 C 75.587 89.600,74.964 89.960,74.492 90.400 C 74.020 90.840,73.356 91.200,73.017 91.200 C 72.678 91.200,72.400 91.380,72.400 91.600 C 72.400 91.820,72.080 92.000,71.688 92.000 C 71.297 92.000,70.717 92.360,70.400 92.800 C 70.083 93.240,69.584 93.600,69.292 93.600 C 68.716 93.600,66.326 94.745,66.000 95.177 C 65.890 95.322,65.150 95.744,64.355 96.113 C 63.560 96.483,62.683 97.059,62.406 97.393 C 62.129 97.727,61.676 98.000,61.400 98.000 C 61.124 98.000,60.676 98.268,60.404 98.596 C 60.132 98.923,59.783 99.113,59.628 99.017 C 59.473 98.921,59.093 99.193,58.785 99.621 C 58.476 100.050,57.903 100.400,57.512 100.400 C 57.120 100.400,56.800 100.580,56.800 100.800 C 56.800 101.020,56.480 101.200,56.088 101.200 C 55.697 101.200,55.117 101.560,54.800 102.000 C 54.483 102.440,53.903 102.800,53.512 102.800 C 53.120 102.800,52.800 102.980,52.800 103.200 C 52.800 103.420,52.480 103.600,52.088 103.600 C 51.697 103.600,51.117 103.960,50.800 104.400 C 50.483 104.840,49.903 105.200,49.512 105.200 C 49.120 105.200,48.800 105.380,48.800 105.600 C 48.800 105.820,48.564 106.000,48.275 106.000 C 47.987 106.000,47.364 106.360,46.892 106.800 C 46.420 107.240,45.756 107.600,45.417 107.600 C 45.078 107.600,44.800 107.780,44.800 108.000 C 44.800 108.220,44.570 108.400,44.288 108.400 C 44.007 108.400,43.517 108.760,43.200 109.200 C 42.883 109.640,42.399 110.000,42.125 110.000 C 41.381 110.000,38.800 111.299,38.800 111.674 C 38.800 111.853,38.440 112.000,38.000 112.000 C 37.560 112.000,37.200 112.180,37.200 112.400 C 37.200 112.620,37.012 112.800,36.783 112.800 C 36.554 112.800,35.980 113.160,35.508 113.600 C 35.036 114.040,34.338 114.400,33.958 114.400 C 33.578 114.400,33.207 114.542,33.133 114.714 C 32.894 115.280,30.492 116.800,29.838 116.800 C 29.487 116.800,29.200 116.980,29.200 117.200 C 29.200 117.420,28.970 117.600,28.688 117.600 C 28.407 117.600,27.917 117.960,27.600 118.400 C 27.283 118.840,26.788 119.200,26.501 119.200 C 25.773 119.200,22.400 122.645,22.400 123.389 C 22.400 123.725,22.220 124.000,22.000 124.000 C 21.780 124.000,21.600 124.360,21.600 124.800 C 21.600 125.240,21.420 125.600,21.200 125.600 C 20.969 125.600,20.800 126.867,20.800 128.600 C 20.800 130.333,20.969 131.600,21.200 131.600 C 21.420 131.600,21.600 131.960,21.600 132.400 C 21.600 132.840,21.780 133.200,22.000 133.200 C 22.220 133.200,22.400 133.475,22.400 133.811 C 22.400 134.452,25.726 138.000,26.327 138.000 C 26.519 138.000,27.002 138.360,27.400 138.800 C 27.798 139.240,28.286 139.600,28.483 139.600 C 28.681 139.600,29.505 140.050,30.314 140.600 C 31.123 141.150,32.021 141.600,32.310 141.600 C 32.598 141.600,33.220 141.960,33.692 142.400 C 34.164 142.840,34.787 143.200,35.075 143.200 C 35.364 143.200,35.600 143.380,35.600 143.600 C 35.600 143.820,35.878 144.000,36.217 144.000 C 36.556 144.000,37.220 144.360,37.692 144.800 C 38.164 145.240,38.787 145.600,39.075 145.600 C 39.364 145.600,39.600 145.780,39.600 146.000 C 39.600 146.220,39.878 146.400,40.217 146.400 C 40.556 146.400,41.220 146.760,41.692 147.200 C 42.164 147.640,42.787 148.000,43.075 148.000 C 43.364 148.000,43.600 148.180,43.600 148.400 C 43.600 148.620,43.870 148.800,44.200 148.800 C 44.530 148.800,44.800 148.980,44.800 149.200 C 44.800 149.420,45.036 149.600,45.325 149.600 C 45.613 149.600,46.236 149.960,46.708 150.400 C 47.180 150.840,47.844 151.200,48.183 151.200 C 48.522 151.200,48.800 151.380,48.800 151.600 C 48.800 151.820,49.036 152.000,49.325 152.000 C 49.613 152.000,50.236 152.360,50.708 152.800 C 51.180 153.240,51.844 153.600,52.183 153.600 C 52.522 153.600,52.800 153.780,52.800 154.000 C 52.800 154.220,53.036 154.400,53.325 154.400 C 53.613 154.400,54.236 154.760,54.708 155.200 C 55.180 155.640,55.844 156.000,56.183 156.000 C 56.522 156.000,56.800 156.180,56.800 156.400 C 56.800 156.620,57.036 156.800,57.325 156.800 C 57.613 156.800,58.228 157.153,58.690 157.584 C 59.153 158.015,59.997 158.484,60.566 158.627 C 61.135 158.770,61.600 159.047,61.600 159.243 C 61.600 159.440,61.870 159.600,62.200 159.600 C 62.530 159.600,62.800 159.780,62.800 160.000 C 62.800 160.220,63.160 160.400,63.600 160.400 C 64.040 160.400,64.400 160.580,64.400 160.800 C 64.400 161.020,64.670 161.200,65.000 161.200 C 65.330 161.200,65.600 161.380,65.600 161.600 C 65.600 161.820,65.870 162.000,66.200 162.000 C 66.530 162.000,66.800 162.180,66.800 162.400 C 66.800 162.620,67.160 162.800,67.600 162.800 C 68.040 162.800,68.400 162.952,68.400 163.137 C 68.400 163.323,69.255 163.907,70.300 164.437 C 71.345 164.966,72.549 165.714,72.975 166.099 C 73.402 166.485,73.987 166.800,74.275 166.800 C 74.564 166.800,74.800 166.980,74.800 167.200 C 74.800 167.420,75.078 167.600,75.417 167.600 C 75.756 167.600,76.394 167.936,76.834 168.346 C 77.275 168.757,78.482 169.521,79.518 170.046 C 80.553 170.570,81.749 171.314,82.175 171.699 C 82.602 172.085,83.187 172.400,83.475 172.400 C 83.764 172.400,84.000 172.591,84.000 172.824 C 84.000 173.057,84.165 173.145,84.366 173.021 C 84.568 172.896,85.255 173.234,85.893 173.771 C 86.531 174.309,87.519 174.865,88.087 175.007 C 88.656 175.150,89.491 175.612,89.944 176.033 C 90.396 176.455,91.044 176.800,91.383 176.800 C 91.722 176.800,92.000 176.980,92.000 177.200 C 92.000 177.420,92.248 177.600,92.551 177.600 C 92.854 177.600,93.329 177.873,93.606 178.207 C 93.883 178.541,94.691 179.090,95.401 179.427 C 96.111 179.764,97.069 180.391,97.529 180.820 C 97.990 181.249,98.644 181.600,98.983 181.600 C 99.322 181.600,99.600 181.780,99.600 182.000 C 99.600 182.220,99.836 182.400,100.125 182.400 C 100.413 182.400,101.036 182.760,101.508 183.200 C 101.980 183.640,102.644 184.000,102.983 184.000 C 103.322 184.000,103.600 184.180,103.600 184.400 C 103.600 184.620,103.836 184.800,104.125 184.800 C 104.413 184.800,105.036 185.160,105.508 185.600 C 105.980 186.040,106.644 186.400,106.983 186.400 C 107.322 186.400,107.600 186.580,107.600 186.800 C 107.600 187.020,107.793 187.200,108.028 187.200 C 108.263 187.200,109.241 187.740,110.200 188.400 C 111.159 189.060,112.045 189.600,112.167 189.600 C 112.290 189.600,112.759 189.915,113.208 190.300 C 113.658 190.685,114.065 190.932,114.113 190.850 C 114.161 190.767,115.010 191.180,116.000 191.767 C 116.990 192.355,118.115 192.938,118.500 193.064 C 118.885 193.190,119.200 193.452,119.200 193.647 C 119.200 193.841,119.436 194.000,119.725 194.000 C 120.013 194.000,120.636 194.360,121.108 194.800 C 121.580 195.240,122.244 195.600,122.583 195.600 C 122.922 195.600,123.200 195.780,123.200 196.000 C 123.200 196.220,123.436 196.400,123.725 196.400 C 124.013 196.400,124.636 196.760,125.108 197.200 C 125.580 197.640,126.244 198.000,126.583 198.000 C 126.922 198.000,127.200 198.180,127.200 198.400 C 127.200 198.620,127.388 198.800,127.617 198.800 C 127.846 198.800,128.420 199.160,128.892 199.600 C 129.364 200.040,129.987 200.400,130.275 200.400 C 130.564 200.400,130.800 200.580,130.800 200.800 C 130.800 201.020,131.036 201.200,131.325 201.200 C 131.613 201.200,132.236 201.560,132.708 202.000 C 133.180 202.440,133.771 202.800,134.022 202.800 C 134.536 202.800,136.929 204.404,137.133 204.886 C 137.207 205.058,137.541 205.200,137.875 205.200 C 138.210 205.200,139.284 205.740,140.262 206.400 C 141.240 207.060,142.211 207.600,142.420 207.600 C 142.629 207.600,142.802 207.735,142.804 207.900 C 142.806 208.065,143.616 208.555,144.604 208.990 C 145.592 209.424,146.400 209.919,146.400 210.090 C 146.400 210.260,146.636 210.400,146.925 210.400 C 147.213 210.400,147.836 210.760,148.308 211.200 C 148.780 211.640,149.444 212.000,149.783 212.000 C 150.122 212.000,150.400 212.180,150.400 212.400 C 150.400 212.620,150.636 212.800,150.925 212.800 C 151.213 212.800,151.836 213.160,152.308 213.600 C 152.780 214.040,153.429 214.400,153.750 214.400 C 154.071 214.400,154.393 214.535,154.467 214.700 C 154.634 215.076,156.764 216.375,157.700 216.671 C 158.085 216.793,158.400 217.052,158.400 217.247 C 158.400 217.441,158.648 217.600,158.951 217.600 C 159.254 217.600,159.729 217.873,160.006 218.207 C 160.283 218.541,161.160 219.120,161.955 219.492 C 162.750 219.865,163.633 220.397,163.919 220.675 C 164.204 220.953,165.104 221.494,165.919 221.877 C 166.733 222.260,167.749 222.895,168.175 223.287 C 168.602 223.679,169.187 224.000,169.475 224.000 C 169.764 224.000,170.000 224.180,170.000 224.400 C 170.000 224.620,170.347 224.800,170.771 224.800 C 171.196 224.800,171.813 225.070,172.143 225.400 C 172.473 225.730,173.026 226.000,173.371 226.000 C 173.717 226.000,174.000 226.158,174.000 226.351 C 174.000 226.545,174.540 226.927,175.200 227.200 C 175.860 227.473,176.400 227.855,176.400 228.049 C 176.400 228.242,176.670 228.400,177.000 228.400 C 177.330 228.400,177.600 228.580,177.600 228.800 C 177.600 229.020,177.920 229.200,178.312 229.200 C 178.703 229.200,179.283 229.560,179.600 230.000 C 179.917 230.440,180.497 230.800,180.888 230.800 C 181.280 230.800,181.600 230.980,181.600 231.200 C 181.600 231.420,181.870 231.600,182.200 231.600 C 182.530 231.600,182.800 231.780,182.800 232.000 C 182.800 232.220,183.070 232.400,183.400 232.400 C 183.730 232.400,184.000 232.580,184.000 232.800 C 184.000 233.020,184.360 233.200,184.800 233.200 C 185.240 233.200,185.600 233.380,185.600 233.600 C 185.600 233.820,185.949 234.000,186.376 234.000 C 186.803 234.000,187.264 234.180,187.400 234.400 C 187.536 234.620,188.076 234.800,188.600 234.800 C 189.124 234.800,189.664 234.980,189.800 235.200 C 189.936 235.420,190.847 235.600,191.824 235.600 C 192.801 235.600,193.600 235.780,193.600 236.000 C 193.600 236.540,206.266 236.540,206.600 236.000 C 206.736 235.780,207.546 235.600,208.400 235.600 C 209.254 235.600,210.064 235.420,210.200 235.200 C 210.336 234.980,210.876 234.800,211.400 234.800 C 211.924 234.800,212.464 234.620,212.600 234.400 C 212.736 234.180,213.182 234.000,213.590 234.000 C 213.999 234.000,214.393 233.865,214.467 233.700 C 214.634 233.324,216.764 232.025,217.700 231.729 C 218.085 231.607,218.400 231.348,218.400 231.153 C 218.400 230.959,218.678 230.800,219.017 230.800 C 219.356 230.800,220.020 230.440,220.492 230.000 C 220.964 229.560,221.587 229.200,221.875 229.200 C 222.164 229.200,222.400 229.064,222.400 228.898 C 222.400 228.731,222.906 228.371,223.525 228.097 C 224.144 227.824,225.036 227.240,225.508 226.800 C 225.980 226.360,226.644 226.000,226.983 226.000 C 227.322 226.000,227.600 225.823,227.600 225.608 C 227.600 225.392,228.095 225.094,228.700 224.946 C 229.305 224.798,229.890 224.570,230.000 224.438 C 230.334 224.040,231.737 223.198,232.900 222.698 C 233.505 222.438,234.000 222.084,234.000 221.912 C 234.000 221.741,234.236 221.600,234.525 221.600 C 234.813 221.600,235.398 221.285,235.825 220.899 C 236.251 220.514,237.455 219.766,238.500 219.237 C 239.545 218.707,240.400 218.123,240.400 217.937 C 240.400 217.752,240.670 217.600,241.000 217.600 C 241.330 217.600,241.600 217.420,241.600 217.200 C 241.600 216.980,241.878 216.800,242.217 216.800 C 242.556 216.800,243.220 216.440,243.692 216.000 C 244.164 215.560,244.787 215.200,245.075 215.200 C 245.364 215.200,245.600 215.020,245.600 214.800 C 245.600 214.580,245.878 214.400,246.217 214.400 C 246.556 214.400,247.220 214.040,247.692 213.600 C 248.164 213.160,248.787 212.800,249.075 212.800 C 249.364 212.800,249.600 212.620,249.600 212.400 C 249.600 212.180,249.878 212.000,250.217 212.000 C 250.556 212.000,251.220 211.640,251.692 211.200 C 252.164 210.760,252.787 210.400,253.075 210.400 C 253.364 210.400,253.600 210.220,253.600 210.000 C 253.600 209.780,253.945 209.600,254.367 209.600 C 254.788 209.600,255.193 209.447,255.267 209.261 C 255.391 208.944,258.267 207.213,260.297 206.233 C 260.790 205.995,261.195 205.665,261.197 205.500 C 261.199 205.335,261.478 205.200,261.817 205.200 C 262.156 205.200,262.820 204.840,263.292 204.400 C 263.764 203.960,264.387 203.600,264.675 203.600 C 264.964 203.600,265.200 203.420,265.200 203.200 C 265.200 202.980,265.545 202.800,265.967 202.800 C 266.388 202.800,266.793 202.658,266.867 202.486 C 267.071 202.004,269.464 200.400,269.978 200.400 C 270.229 200.400,270.820 200.040,271.292 199.600 C 271.764 199.160,272.387 198.800,272.675 198.800 C 272.964 198.800,273.200 198.620,273.200 198.400 C 273.200 198.180,273.442 198.000,273.738 198.000 C 274.034 198.000,274.602 197.640,275.000 197.200 C 275.398 196.760,275.966 196.400,276.262 196.400 C 276.558 196.400,276.800 196.220,276.800 196.000 C 276.800 195.780,277.078 195.600,277.417 195.600 C 277.756 195.600,278.420 195.240,278.892 194.800 C 279.364 194.360,279.987 194.000,280.275 194.000 C 280.564 194.000,280.800 193.820,280.800 193.600 C 280.800 193.380,281.078 193.200,281.417 193.200 C 281.756 193.200,282.410 192.849,282.871 192.420 C 283.331 191.991,284.199 191.532,284.800 191.400 C 285.401 191.268,286.269 190.809,286.729 190.380 C 287.190 189.951,287.844 189.600,288.183 189.600 C 288.522 189.600,288.800 189.420,288.800 189.200 C 288.800 188.980,289.036 188.800,289.325 188.800 C 289.613 188.800,290.236 188.440,290.708 188.000 C 291.180 187.560,291.754 187.200,291.983 187.200 C 292.212 187.200,292.400 187.020,292.400 186.800 C 292.400 186.580,292.760 186.400,293.200 186.400 C 293.640 186.400,294.000 186.250,294.000 186.068 C 294.000 185.885,294.495 185.480,295.100 185.168 C 295.705 184.856,296.290 184.511,296.400 184.401 C 296.794 184.005,299.013 182.746,299.700 182.529 C 300.085 182.407,300.400 182.148,300.400 181.953 C 300.400 181.759,300.745 181.600,301.167 181.600 C 301.588 181.600,301.993 181.458,302.067 181.286 C 302.271 180.804,304.664 179.200,305.178 179.200 C 305.429 179.200,306.020 178.840,306.492 178.400 C 306.964 177.960,307.587 177.600,307.875 177.600 C 308.164 177.600,308.400 177.420,308.400 177.200 C 308.400 176.980,308.588 176.800,308.817 176.800 C 309.046 176.800,309.610 176.449,310.071 176.020 C 310.531 175.591,311.399 175.132,312.000 175.000 C 312.601 174.868,313.469 174.409,313.929 173.980 C 314.390 173.551,315.044 173.200,315.383 173.200 C 315.722 173.200,316.000 173.032,316.000 172.827 C 316.000 172.622,316.359 172.340,316.798 172.201 C 317.236 172.062,317.821 171.733,318.098 171.472 C 318.374 171.210,319.455 170.563,320.500 170.035 C 321.545 169.506,322.400 168.923,322.400 168.737 C 322.400 168.552,322.771 168.400,323.224 168.400 C 323.677 168.400,323.964 168.265,323.862 168.100 C 323.760 167.935,324.559 167.359,325.638 166.821 C 326.717 166.283,327.600 165.698,327.600 165.521 C 327.600 165.345,327.878 165.200,328.217 165.200 C 328.556 165.200,329.220 164.840,329.692 164.400 C 330.164 163.960,330.787 163.600,331.075 163.600 C 331.364 163.600,331.600 163.420,331.600 163.200 C 331.600 162.980,331.960 162.800,332.400 162.800 C 332.840 162.800,333.200 162.620,333.200 162.400 C 333.200 162.180,333.470 162.000,333.800 162.000 C 334.130 162.000,334.400 161.820,334.400 161.600 C 334.400 161.380,334.670 161.200,335.000 161.200 C 335.330 161.200,335.600 161.020,335.600 160.800 C 335.600 160.580,335.960 160.400,336.400 160.400 C 336.840 160.400,337.200 160.220,337.200 160.000 C 337.200 159.780,337.470 159.600,337.800 159.600 C 338.130 159.600,338.400 159.440,338.400 159.243 C 338.400 159.047,338.868 158.769,339.440 158.626 C 340.427 158.378,342.339 157.193,343.521 156.096 C 343.820 155.819,344.230 155.695,344.432 155.820 C 344.635 155.945,344.800 155.887,344.800 155.691 C 344.800 155.495,345.295 155.080,345.900 154.768 C 346.505 154.456,347.090 154.111,347.200 154.001 C 347.594 153.605,349.813 152.346,350.500 152.129 C 350.885 152.007,351.200 151.748,351.200 151.553 C 351.200 151.359,351.478 151.200,351.817 151.200 C 352.156 151.200,352.820 150.840,353.292 150.400 C 353.764 149.960,354.387 149.600,354.675 149.600 C 354.964 149.600,355.200 149.464,355.200 149.298 C 355.200 149.131,355.706 148.771,356.325 148.497 C 356.944 148.224,357.836 147.640,358.308 147.200 C 358.780 146.760,359.444 146.400,359.783 146.400 C 360.122 146.400,360.400 146.220,360.400 146.000 C 360.400 145.780,360.636 145.600,360.925 145.600 C 361.213 145.600,361.836 145.240,362.308 144.800 C 362.780 144.360,363.444 144.000,363.783 144.000 C 364.122 144.000,364.400 143.820,364.400 143.600 C 364.400 143.380,364.636 143.200,364.925 143.200 C 365.213 143.200,365.836 142.840,366.308 142.400 C 366.780 141.960,367.371 141.600,367.622 141.600 C 368.051 141.600,370.367 140.433,370.800 139.999 C 370.910 139.889,371.495 139.544,372.100 139.232 C 372.705 138.920,373.200 138.515,373.200 138.332 C 373.200 138.150,373.385 138.000,373.611 138.000 C 374.257 138.000,377.600 134.489,377.600 133.811 C 377.600 133.475,377.780 133.200,378.000 133.200 C 378.220 133.200,378.400 132.840,378.400 132.400 C 378.400 131.960,378.580 131.600,378.800 131.600 C 379.031 131.600,379.200 130.333,379.200 128.600 C 379.200 126.867,379.031 125.600,378.800 125.600 C 378.580 125.600,378.400 125.240,378.400 124.800 C 378.400 124.360,378.220 124.000,378.000 124.000 C 377.780 124.000,377.600 123.759,377.600 123.464 C 377.600 122.924,374.301 119.200,373.823 119.200 C 373.682 119.200,373.180 118.840,372.708 118.400 C 372.236 117.960,371.613 117.600,371.325 117.600 C 371.036 117.600,370.800 117.420,370.800 117.200 C 370.800 116.980,370.522 116.800,370.183 116.800 C 369.844 116.800,369.180 116.440,368.708 116.000 C 368.236 115.560,367.613 115.200,367.325 115.200 C 367.036 115.200,366.800 115.020,366.800 114.800 C 366.800 114.580,366.522 114.400,366.183 114.400 C 365.844 114.400,365.180 114.040,364.708 113.600 C 364.236 113.160,363.613 112.800,363.325 112.800 C 363.036 112.800,362.800 112.620,362.800 112.400 C 362.800 112.180,362.440 112.000,362.000 112.000 C 361.560 112.000,361.200 111.838,361.200 111.640 C 361.200 111.441,360.391 110.946,359.401 110.540 C 358.412 110.133,357.602 109.665,357.601 109.500 C 357.601 109.335,357.330 109.200,357.000 109.200 C 356.670 109.200,356.400 109.020,356.400 108.800 C 356.400 108.580,356.130 108.400,355.800 108.400 C 355.470 108.400,355.200 108.220,355.200 108.000 C 355.200 107.780,354.906 107.600,354.547 107.600 C 354.188 107.600,353.603 107.285,353.247 106.900 C 352.891 106.515,352.330 106.142,352.000 106.070 C 351.670 105.999,351.340 105.774,351.267 105.570 C 351.193 105.367,350.854 105.200,350.514 105.200 C 350.173 105.200,349.603 104.885,349.247 104.500 C 348.891 104.115,348.330 103.742,348.000 103.670 C 347.670 103.599,347.340 103.374,347.267 103.170 C 347.193 102.967,346.828 102.800,346.455 102.800 C 346.082 102.800,345.517 102.440,345.200 102.000 C 344.883 101.560,344.303 101.200,343.912 101.200 C 343.520 101.200,343.200 101.020,343.200 100.800 C 343.200 100.580,342.880 100.400,342.488 100.400 C 342.097 100.400,341.517 100.040,341.200 99.600 C 340.883 99.160,340.393 98.800,340.112 98.800 C 339.830 98.800,339.600 98.620,339.600 98.400 C 339.600 98.180,339.240 98.000,338.800 98.000 C 338.360 98.000,338.000 97.848,338.000 97.663 C 338.000 97.477,337.145 96.895,336.100 96.368 C 335.055 95.842,334.110 95.298,334.000 95.161 C 333.687 94.771,331.289 93.600,330.803 93.600 C 330.563 93.600,329.980 93.240,329.508 92.800 C 329.036 92.360,328.413 92.000,328.125 92.000 C 327.836 92.000,327.600 91.820,327.600 91.600 C 327.600 91.380,327.332 91.200,327.005 91.200 C 326.457 91.200,325.522 90.570,324.184 89.300 C 323.894 89.025,323.457 88.800,323.212 88.800 C 322.967 88.800,322.380 88.440,321.908 88.000 C 321.436 87.560,320.813 87.200,320.525 87.200 C 320.236 87.200,320.000 87.020,320.000 86.800 C 320.000 86.580,319.722 86.400,319.383 86.400 C 319.044 86.400,318.380 86.040,317.908 85.600 C 317.436 85.160,316.813 84.800,316.525 84.800 C 316.236 84.800,316.000 84.620,316.000 84.400 C 316.000 84.180,315.722 84.000,315.383 84.000 C 315.044 84.000,314.380 83.640,313.908 83.200 C 313.436 82.760,312.813 82.400,312.525 82.400 C 312.236 82.400,312.000 82.220,312.000 82.000 C 312.000 81.780,311.655 81.600,311.233 81.600 C 310.812 81.600,310.407 81.446,310.333 81.257 C 310.160 80.812,305.086 77.744,303.907 77.372 C 303.408 77.214,302.709 76.751,302.353 76.343 C 301.997 75.934,301.412 75.600,301.053 75.600 C 300.694 75.600,300.400 75.420,300.400 75.200 C 300.400 74.980,300.080 74.800,299.688 74.800 C 299.297 74.800,298.717 74.440,298.400 74.000 C 298.083 73.560,297.503 73.200,297.112 73.200 C 296.720 73.200,296.400 73.020,296.400 72.800 C 296.400 72.580,296.080 72.400,295.688 72.400 C 295.297 72.400,294.717 72.040,294.400 71.600 C 294.083 71.160,293.503 70.800,293.112 70.800 C 292.720 70.800,292.400 70.620,292.400 70.400 C 292.400 70.180,292.130 70.000,291.800 70.000 C 291.470 70.000,291.200 69.820,291.200 69.600 C 291.200 69.380,290.930 69.200,290.600 69.200 C 290.270 69.200,290.000 69.020,290.000 68.800 C 290.000 68.580,289.730 68.400,289.400 68.400 C 289.070 68.400,288.800 68.220,288.800 68.000 C 288.800 67.780,288.522 67.600,288.183 67.600 C 287.844 67.600,287.180 67.240,286.708 66.800 C 286.236 66.360,285.613 66.000,285.325 66.000 C 285.036 66.000,284.800 65.820,284.800 65.600 C 284.800 65.380,284.522 65.200,284.183 65.200 C 283.844 65.200,283.180 64.840,282.708 64.400 C 282.236 63.960,281.613 63.600,281.325 63.600 C 281.036 63.600,280.800 63.420,280.800 63.200 C 280.800 62.980,280.440 62.800,280.000 62.800 C 279.560 62.800,279.200 62.642,279.200 62.449 C 279.200 62.255,278.660 61.873,278.000 61.600 C 277.340 61.327,276.800 60.945,276.800 60.751 C 276.800 60.558,276.453 60.400,276.029 60.400 C 275.604 60.400,274.987 60.130,274.657 59.800 C 274.327 59.470,273.864 59.200,273.629 59.200 C 273.393 59.200,273.200 59.020,273.200 58.800 C 273.200 58.580,272.906 58.400,272.547 58.400 C 272.188 58.400,271.603 58.085,271.247 57.700 C 270.891 57.315,270.330 56.941,270.000 56.870 C 269.670 56.798,269.340 56.573,269.267 56.370 C 269.193 56.166,268.854 56.000,268.514 56.000 C 268.173 56.000,267.603 55.685,267.247 55.300 C 266.891 54.915,266.330 54.541,266.000 54.470 C 265.670 54.398,265.340 54.173,265.267 53.970 C 265.193 53.766,264.788 53.600,264.367 53.600 C 263.945 53.600,263.600 53.420,263.600 53.200 C 263.600 52.980,263.319 52.800,262.976 52.800 C 262.607 52.800,262.469 52.612,262.638 52.338 C 262.807 52.064,262.749 51.985,262.494 52.142 C 262.258 52.288,261.793 52.136,261.461 51.804 C 261.129 51.472,260.640 51.200,260.375 51.200 C 260.111 51.200,259.603 50.871,259.247 50.470 C 258.891 50.068,258.015 49.484,257.300 49.172 C 256.585 48.860,256.000 48.469,256.000 48.302 C 256.000 48.136,255.764 48.000,255.475 48.000 C 255.187 48.000,254.564 47.640,254.092 47.200 C 253.620 46.760,252.956 46.400,252.617 46.400 C 252.278 46.400,252.000 46.242,252.000 46.049 C 252.000 45.855,251.460 45.473,250.800 45.200 C 250.140 44.927,249.600 44.545,249.600 44.351 C 249.600 44.158,249.253 44.000,248.829 44.000 C 248.404 44.000,247.787 43.730,247.457 43.400 C 247.127 43.070,246.574 42.800,246.229 42.800 C 245.883 42.800,245.600 42.620,245.600 42.400 C 245.600 42.180,245.280 42.000,244.888 42.000 C 244.497 42.000,243.917 41.640,243.600 41.200 C 243.283 40.760,242.703 40.400,242.312 40.400 C 241.920 40.400,241.600 40.220,241.600 40.000 C 241.600 39.780,241.412 39.600,241.183 39.600 C 240.954 39.600,240.380 39.240,239.908 38.800 C 239.436 38.360,238.813 38.000,238.525 38.000 C 238.236 38.000,238.000 37.820,238.000 37.600 C 238.000 37.380,237.722 37.200,237.383 37.200 C 237.044 37.200,236.380 36.840,235.908 36.400 C 235.436 35.960,234.813 35.600,234.525 35.600 C 234.236 35.600,234.000 35.420,234.000 35.200 C 234.000 34.980,233.722 34.800,233.383 34.800 C 233.044 34.800,232.380 34.440,231.908 34.000 C 231.436 33.560,230.813 33.200,230.525 33.200 C 230.236 33.200,230.000 33.020,230.000 32.800 C 230.000 32.580,229.722 32.400,229.383 32.400 C 229.044 32.400,228.380 32.040,227.908 31.600 C 227.436 31.160,226.813 30.800,226.525 30.800 C 226.236 30.800,226.000 30.620,226.000 30.400 C 226.000 30.180,225.807 30.000,225.572 30.000 C 225.337 30.000,224.392 29.485,223.472 28.855 C 222.552 28.225,221.395 27.583,220.900 27.428 C 220.405 27.273,220.000 26.968,220.000 26.749 C 220.000 26.531,219.835 26.455,219.632 26.580 C 219.430 26.705,218.993 26.536,218.661 26.204 C 218.329 25.872,217.774 25.600,217.429 25.600 C 217.083 25.600,216.800 25.420,216.800 25.200 C 216.800 24.980,216.575 24.796,216.300 24.791 C 216.025 24.786,215.350 24.430,214.800 24.000 C 214.250 23.570,213.395 23.214,212.900 23.209 C 212.405 23.204,212.000 23.020,212.000 22.800 C 212.000 22.580,211.460 22.400,210.800 22.400 C 210.140 22.400,209.600 22.220,209.600 22.000 C 209.600 21.780,208.700 21.600,207.600 21.600 C 206.500 21.600,205.600 21.420,205.600 21.200 C 205.600 20.953,203.541 20.800,200.224 20.800 C 197.071 20.800,194.745 20.965,194.600 21.200 " stroke="none" fill="#fce42c" fill-rule="evenodd"></path><path id="path1" d="M53.600 174.325 C 53.600 174.504,52.970 174.898,52.200 175.200 C 51.430 175.502,50.800 175.896,50.800 176.075 C 50.800 176.254,50.530 176.400,50.200 176.400 C 49.870 176.400,49.600 176.580,49.600 176.800 C 49.600 177.020,49.282 177.200,48.893 177.200 C 48.504 177.200,47.523 177.650,46.714 178.200 C 45.905 178.750,45.063 179.200,44.844 179.200 C 44.625 179.200,44.210 179.515,43.923 179.900 C 43.635 180.285,43.130 180.659,42.800 180.730 C 42.470 180.801,42.140 181.026,42.067 181.230 C 41.993 181.434,41.588 181.600,41.167 181.600 C 40.745 181.600,40.400 181.780,40.400 182.000 C 40.400 182.220,40.130 182.400,39.800 182.400 C 39.470 182.400,39.200 182.580,39.200 182.800 C 39.200 183.020,38.930 183.200,38.600 183.200 C 38.270 183.200,38.000 183.380,38.000 183.600 C 38.000 183.820,37.640 184.000,37.200 184.000 C 36.760 184.000,36.400 184.180,36.400 184.400 C 36.400 184.620,36.080 184.800,35.688 184.800 C 35.297 184.800,34.717 185.160,34.400 185.600 C 34.083 186.040,33.543 186.400,33.200 186.400 C 32.857 186.400,32.317 186.760,32.000 187.200 C 31.683 187.640,31.103 188.000,30.712 188.000 C 30.320 188.000,30.000 188.180,30.000 188.400 C 30.000 188.620,29.640 188.800,29.200 188.800 C 28.760 188.800,28.400 188.980,28.400 189.200 C 28.400 189.420,28.202 189.600,27.960 189.600 C 27.719 189.600,27.017 190.140,26.400 190.800 C 25.783 191.460,25.068 192.000,24.811 192.000 C 24.321 192.000,23.200 192.966,23.200 193.388 C 23.200 193.523,22.840 194.020,22.400 194.492 C 21.960 194.964,21.600 195.666,21.600 196.052 C 21.600 196.437,21.420 196.864,21.200 197.000 C 20.980 197.136,20.800 198.486,20.800 200.000 C 20.800 201.514,20.980 202.864,21.200 203.000 C 21.420 203.136,21.600 203.607,21.600 204.047 C 21.600 204.487,21.780 204.736,22.000 204.600 C 22.220 204.464,22.400 204.723,22.400 205.176 C 22.400 205.629,22.550 206.000,22.732 206.000 C 22.915 206.000,23.304 206.447,23.596 206.993 C 23.889 207.540,24.465 208.094,24.877 208.224 C 25.289 208.355,26.028 208.865,26.520 209.356 C 27.012 209.848,27.996 210.508,28.707 210.823 C 29.418 211.138,30.000 211.531,30.000 211.698 C 30.000 211.864,30.270 212.000,30.600 212.000 C 30.930 212.000,31.200 212.180,31.200 212.400 C 31.200 212.620,31.470 212.800,31.800 212.800 C 32.130 212.800,32.400 212.980,32.400 213.200 C 32.400 213.420,32.760 213.600,33.200 213.600 C 33.640 213.600,34.000 213.738,34.000 213.906 C 34.000 214.074,34.696 214.513,35.547 214.882 C 36.399 215.250,37.344 215.798,37.647 216.098 C 37.951 216.399,39.010 217.085,40.000 217.622 C 40.990 218.160,41.890 218.692,42.000 218.804 C 42.463 219.276,48.885 223.200,49.195 223.200 C 49.381 223.200,49.593 223.335,49.667 223.500 C 49.848 223.908,52.213 225.200,52.778 225.200 C 53.029 225.200,53.620 225.560,54.092 226.000 C 54.564 226.440,55.187 226.800,55.475 226.800 C 55.764 226.800,56.000 226.980,56.000 227.200 C 56.000 227.420,56.278 227.600,56.617 227.600 C 56.956 227.600,57.620 227.960,58.092 228.400 C 58.564 228.840,59.187 229.200,59.475 229.200 C 59.764 229.200,60.000 229.380,60.000 229.600 C 60.000 229.820,60.270 230.000,60.600 230.000 C 60.930 230.000,61.200 230.146,61.200 230.325 C 61.200 230.504,61.822 230.895,62.582 231.193 C 63.342 231.491,63.871 231.885,63.758 232.068 C 63.645 232.250,63.923 232.400,64.376 232.400 C 64.829 232.400,65.200 232.580,65.200 232.800 C 65.200 233.020,65.436 233.200,65.725 233.200 C 66.013 233.200,66.636 233.560,67.108 234.000 C 67.580 234.440,68.244 234.800,68.583 234.800 C 68.922 234.800,69.200 234.980,69.200 235.200 C 69.200 235.420,69.436 235.600,69.725 235.600 C 70.013 235.600,70.636 235.960,71.108 236.400 C 71.580 236.840,72.244 237.200,72.583 237.200 C 72.922 237.200,73.200 237.358,73.200 237.551 C 73.200 237.745,73.740 238.127,74.400 238.400 C 75.060 238.673,75.600 239.055,75.600 239.249 C 75.600 239.442,75.960 239.600,76.400 239.600 C 76.840 239.600,77.201 239.735,77.203 239.900 C 77.206 240.302,79.519 241.600,80.232 241.600 C 80.545 241.600,80.800 241.759,80.800 241.953 C 80.800 242.148,81.115 242.407,81.500 242.529 C 82.185 242.746,84.404 244.004,84.800 244.400 C 84.985 244.585,85.811 245.071,87.796 246.162 C 88.233 246.403,88.884 246.915,89.243 247.300 C 89.601 247.685,90.188 248.000,90.547 248.000 C 90.906 248.000,91.200 248.180,91.200 248.400 C 91.200 248.620,91.560 248.800,92.000 248.800 C 92.440 248.800,92.800 248.980,92.800 249.200 C 92.800 249.420,93.081 249.600,93.424 249.600 C 93.767 249.600,93.936 249.780,93.800 250.000 C 93.581 250.355,94.422 250.595,95.330 250.437 C 95.511 250.406,95.545 250.565,95.406 250.790 C 95.267 251.016,95.433 251.200,95.776 251.200 C 96.119 251.200,96.400 251.380,96.400 251.600 C 96.400 251.820,96.720 252.000,97.112 252.000 C 97.503 252.000,98.083 252.360,98.400 252.800 C 98.717 253.240,99.297 253.600,99.688 253.600 C 100.080 253.600,100.400 253.780,100.400 254.000 C 100.400 254.220,100.720 254.400,101.112 254.400 C 101.503 254.400,102.083 254.760,102.400 255.200 C 102.717 255.640,103.297 256.000,103.688 256.000 C 104.080 256.000,104.400 256.180,104.400 256.400 C 104.400 256.620,104.760 256.800,105.200 256.800 C 105.640 256.800,106.000 256.935,106.001 257.100 C 106.001 257.265,106.991 257.917,108.201 258.549 C 109.410 259.181,110.400 259.856,110.400 260.049 C 110.400 260.242,110.760 260.400,111.200 260.400 C 111.640 260.400,112.000 260.580,112.000 260.800 C 112.000 261.020,112.236 261.200,112.525 261.200 C 112.813 261.200,113.436 261.560,113.908 262.000 C 114.380 262.440,115.044 262.800,115.383 262.800 C 115.722 262.800,116.000 262.980,116.000 263.200 C 116.000 263.420,116.236 263.600,116.525 263.600 C 116.813 263.600,117.436 263.960,117.908 264.400 C 118.380 264.840,119.044 265.200,119.383 265.200 C 119.722 265.200,120.000 265.380,120.000 265.600 C 120.000 265.820,120.236 266.000,120.525 266.000 C 120.813 266.000,121.436 266.360,121.908 266.800 C 122.380 267.240,123.044 267.600,123.383 267.600 C 123.722 267.600,124.000 267.780,124.000 268.000 C 124.000 268.220,124.236 268.400,124.525 268.400 C 124.813 268.400,125.436 268.760,125.908 269.200 C 126.380 269.640,127.055 270.000,127.407 270.000 C 127.759 270.000,127.936 270.180,127.800 270.400 C 127.664 270.620,127.841 270.800,128.193 270.800 C 128.545 270.800,129.220 271.160,129.692 271.600 C 130.164 272.040,130.787 272.400,131.075 272.400 C 131.364 272.400,131.600 272.591,131.600 272.824 C 131.600 273.057,131.757 273.150,131.948 273.032 C 132.139 272.914,132.808 273.258,133.435 273.796 C 134.061 274.334,135.050 274.879,135.633 275.007 C 136.215 275.135,137.069 275.591,137.529 276.020 C 137.990 276.449,138.644 276.800,138.983 276.800 C 139.322 276.800,139.600 276.980,139.600 277.200 C 139.600 277.420,139.836 277.600,140.125 277.600 C 140.413 277.600,141.036 277.960,141.508 278.400 C 141.980 278.840,142.644 279.200,142.983 279.200 C 143.322 279.200,143.600 279.380,143.600 279.600 C 143.600 279.820,143.788 280.000,144.017 280.000 C 144.246 280.000,144.820 280.360,145.292 280.800 C 145.764 281.240,146.387 281.600,146.675 281.600 C 146.964 281.600,147.200 281.780,147.200 282.000 C 147.200 282.220,147.436 282.400,147.725 282.400 C 148.013 282.400,148.636 282.760,149.108 283.200 C 149.580 283.640,150.229 284.000,150.550 284.000 C 150.871 284.000,151.193 284.135,151.267 284.300 C 151.434 284.676,153.564 285.975,154.500 286.271 C 154.885 286.393,155.200 286.652,155.200 286.847 C 155.200 287.041,155.436 287.200,155.725 287.200 C 156.013 287.200,156.605 287.515,157.040 287.900 C 157.475 288.285,158.094 288.658,158.416 288.730 C 158.737 288.801,159.060 289.026,159.133 289.230 C 159.207 289.433,159.494 289.600,159.771 289.600 C 160.049 289.600,160.593 289.950,160.979 290.377 C 161.366 290.805,162.180 291.264,162.787 291.397 C 163.395 291.531,164.269 291.991,164.729 292.420 C 165.190 292.849,165.844 293.200,166.183 293.200 C 166.522 293.200,166.800 293.380,166.800 293.600 C 166.800 293.820,167.036 294.000,167.325 294.000 C 167.613 294.000,168.236 294.360,168.708 294.800 C 169.180 295.240,169.844 295.600,170.183 295.600 C 170.522 295.600,170.800 295.780,170.800 296.000 C 170.800 296.220,171.036 296.400,171.325 296.400 C 171.613 296.400,172.236 296.760,172.708 297.200 C 173.180 297.640,173.844 298.000,174.183 298.000 C 174.522 298.000,174.800 298.180,174.800 298.400 C 174.800 298.620,175.036 298.800,175.325 298.800 C 175.613 298.800,176.236 299.160,176.708 299.600 C 177.180 300.040,177.754 300.400,177.983 300.400 C 178.212 300.400,178.400 300.580,178.400 300.800 C 178.400 301.020,178.760 301.200,179.200 301.200 C 179.640 301.200,180.000 301.368,180.000 301.573 C 180.000 301.778,180.339 302.054,180.752 302.185 C 181.166 302.316,181.910 302.775,182.404 303.204 C 182.899 303.632,183.460 303.887,183.652 303.768 C 183.843 303.650,184.000 303.743,184.000 303.976 C 184.000 304.209,184.270 304.400,184.600 304.400 C 184.930 304.400,185.200 304.546,185.200 304.724 C 185.200 305.127,189.998 306.800,191.153 306.800 C 191.619 306.800,192.000 306.965,192.000 307.167 C 192.000 307.369,193.305 307.634,194.900 307.756 C 196.495 307.878,198.745 308.058,199.900 308.156 C 201.055 308.255,202.000 308.197,202.000 308.028 C 202.000 307.859,203.279 307.684,204.841 307.638 C 206.404 307.593,207.979 307.403,208.341 307.217 C 208.704 307.030,209.810 306.649,210.800 306.369 C 211.790 306.090,212.771 305.712,212.980 305.530 C 213.189 305.349,213.607 305.200,213.908 305.200 C 214.209 305.200,215.241 304.660,216.200 304.000 C 217.159 303.340,218.237 302.800,218.596 302.800 C 218.954 302.800,219.155 302.650,219.042 302.468 C 218.929 302.285,219.458 301.891,220.218 301.593 C 220.978 301.295,221.600 300.904,221.600 300.725 C 221.600 300.546,221.836 300.400,222.125 300.400 C 222.413 300.400,223.036 300.040,223.508 299.600 C 223.980 299.160,224.554 298.800,224.783 298.800 C 225.012 298.800,225.200 298.620,225.200 298.400 C 225.200 298.180,225.478 298.000,225.817 298.000 C 226.156 298.000,226.820 297.640,227.292 297.200 C 227.764 296.760,228.387 296.400,228.675 296.400 C 228.964 296.400,229.200 296.220,229.200 296.000 C 229.200 295.780,229.478 295.600,229.817 295.600 C 230.156 295.600,230.820 295.240,231.292 294.800 C 231.764 294.360,232.387 294.000,232.675 294.000 C 232.964 294.000,233.200 293.820,233.200 293.600 C 233.200 293.380,233.397 293.200,233.638 293.200 C 233.879 293.200,234.565 292.852,235.163 292.427 C 235.760 292.001,236.715 291.536,237.285 291.393 C 237.855 291.250,238.691 290.788,239.144 290.367 C 239.596 289.945,240.055 289.600,240.163 289.600 C 240.271 289.600,241.160 289.060,242.138 288.400 C 243.116 287.740,244.115 287.200,244.358 287.200 C 244.601 287.200,244.800 287.020,244.800 286.800 C 244.800 286.580,245.160 286.400,245.600 286.400 C 246.040 286.400,246.400 286.250,246.400 286.068 C 246.400 285.885,246.895 285.480,247.500 285.168 C 248.105 284.856,248.690 284.511,248.800 284.401 C 249.194 284.005,251.413 282.746,252.100 282.529 C 252.485 282.407,252.800 282.148,252.800 281.953 C 252.800 281.759,253.078 281.600,253.417 281.600 C 253.756 281.600,254.420 281.240,254.892 280.800 C 255.364 280.360,255.987 280.000,256.275 280.000 C 256.564 280.000,256.800 279.820,256.800 279.600 C 256.800 279.380,256.988 279.200,257.217 279.200 C 257.446 279.200,258.020 278.840,258.492 278.400 C 258.964 277.960,259.587 277.600,259.875 277.600 C 260.164 277.600,260.400 277.420,260.400 277.200 C 260.400 276.980,260.678 276.800,261.017 276.800 C 261.356 276.800,262.010 276.449,262.471 276.020 C 262.931 275.591,263.799 275.132,264.400 275.000 C 265.001 274.868,265.869 274.409,266.329 273.980 C 266.790 273.551,267.444 273.200,267.783 273.200 C 268.122 273.200,268.400 273.020,268.400 272.800 C 268.400 272.580,268.670 272.400,269.000 272.400 C 269.330 272.400,269.600 272.220,269.600 272.000 C 269.600 271.780,269.870 271.600,270.200 271.600 C 270.530 271.600,270.800 271.420,270.800 271.200 C 270.800 270.980,271.160 270.800,271.600 270.800 C 272.040 270.800,272.400 270.620,272.400 270.400 C 272.400 270.180,272.636 270.000,272.925 270.000 C 273.213 270.000,273.836 269.640,274.308 269.200 C 274.780 268.760,275.339 268.400,275.550 268.400 C 275.761 268.400,275.993 268.265,276.067 268.100 C 276.234 267.724,278.364 266.425,279.300 266.129 C 279.685 266.007,280.000 265.748,280.000 265.553 C 280.000 265.359,280.278 265.200,280.617 265.200 C 280.956 265.200,281.620 264.840,282.092 264.400 C 282.564 263.960,283.187 263.600,283.475 263.600 C 283.764 263.600,284.000 263.420,284.000 263.200 C 284.000 262.980,284.278 262.800,284.617 262.800 C 284.956 262.800,285.620 262.440,286.092 262.000 C 286.564 261.560,287.187 261.200,287.475 261.200 C 287.764 261.200,288.000 261.020,288.000 260.800 C 288.000 260.580,288.278 260.400,288.617 260.400 C 288.956 260.400,289.627 260.033,290.109 259.585 C 290.590 259.136,291.432 258.657,291.979 258.519 C 292.526 258.382,293.328 257.939,293.762 257.535 C 294.196 257.131,294.772 256.800,295.042 256.800 C 295.312 256.800,295.593 256.633,295.667 256.430 C 295.740 256.226,296.063 256.001,296.384 255.930 C 296.706 255.858,297.325 255.485,297.760 255.100 C 298.195 254.715,298.787 254.400,299.075 254.400 C 299.364 254.400,299.600 254.220,299.600 254.000 C 299.600 253.780,299.960 253.600,300.400 253.600 C 300.840 253.600,301.200 253.420,301.200 253.200 C 301.200 252.980,301.436 252.800,301.725 252.800 C 302.013 252.800,302.636 252.440,303.108 252.000 C 303.580 251.560,304.244 251.200,304.583 251.200 C 304.922 251.200,305.200 251.020,305.200 250.800 C 305.200 250.580,305.470 250.400,305.800 250.400 C 306.130 250.400,306.400 250.220,306.400 250.000 C 306.400 249.780,306.670 249.600,307.000 249.600 C 307.330 249.600,307.600 249.420,307.600 249.200 C 307.600 248.980,307.870 248.800,308.200 248.800 C 308.530 248.800,308.800 248.620,308.800 248.400 C 308.800 248.180,309.171 248.000,309.624 248.000 C 310.077 248.000,310.336 247.820,310.200 247.600 C 310.064 247.380,310.233 247.200,310.576 247.200 C 310.919 247.200,311.200 247.020,311.200 246.800 C 311.200 246.580,311.478 246.400,311.817 246.400 C 312.156 246.400,312.820 246.040,313.292 245.600 C 313.764 245.160,314.387 244.800,314.675 244.800 C 314.964 244.800,315.200 244.620,315.200 244.400 C 315.200 244.180,315.478 244.000,315.817 244.000 C 316.156 244.000,316.820 243.640,317.292 243.200 C 317.764 242.760,318.387 242.400,318.675 242.400 C 318.964 242.400,319.200 242.234,319.200 242.032 C 319.200 241.829,319.740 241.545,320.400 241.400 C 321.060 241.255,321.600 241.013,321.600 240.863 C 321.600 240.712,322.327 240.274,323.215 239.889 C 324.102 239.505,324.932 238.922,325.057 238.595 C 325.183 238.268,325.626 238.000,326.043 238.000 C 326.459 238.000,326.800 237.820,326.800 237.600 C 326.800 237.380,327.120 237.200,327.512 237.200 C 327.903 237.200,328.483 236.840,328.800 236.400 C 329.117 235.960,329.631 235.600,329.941 235.600 C 330.252 235.600,330.842 235.212,331.253 234.739 C 331.664 234.265,332.000 234.092,332.000 234.354 C 332.000 234.620,332.387 234.470,332.875 234.016 C 333.357 233.567,333.987 233.200,334.275 233.200 C 334.564 233.200,334.800 233.020,334.800 232.800 C 334.800 232.580,335.078 232.400,335.417 232.400 C 335.756 232.400,336.420 232.040,336.892 231.600 C 337.364 231.160,337.987 230.800,338.275 230.800 C 338.564 230.800,338.800 230.620,338.800 230.400 C 338.800 230.180,339.070 230.000,339.400 230.000 C 339.730 230.000,340.000 229.820,340.000 229.600 C 340.000 229.380,340.236 229.200,340.525 229.200 C 340.813 229.200,341.436 228.840,341.908 228.400 C 342.380 227.960,343.044 227.600,343.383 227.600 C 343.722 227.600,344.000 227.420,344.000 227.200 C 344.000 226.980,344.236 226.800,344.525 226.800 C 344.813 226.800,345.436 226.440,345.908 226.000 C 346.380 225.560,346.971 225.200,347.222 225.200 C 347.650 225.200,349.966 224.034,350.400 223.600 C 350.720 223.280,352.115 222.436,353.200 221.905 C 353.750 221.636,354.290 221.323,354.400 221.208 C 354.510 221.094,355.005 220.775,355.500 220.500 C 355.995 220.225,356.805 219.775,357.300 219.500 C 357.795 219.225,358.346 218.771,358.525 218.492 C 358.703 218.212,359.018 218.088,359.225 218.215 C 359.431 218.343,359.600 218.278,359.600 218.072 C 359.600 217.866,360.140 217.473,360.800 217.200 C 361.460 216.927,362.000 216.545,362.000 216.351 C 362.000 216.158,362.360 216.000,362.800 216.000 C 363.240 216.000,363.600 215.820,363.600 215.600 C 363.600 215.380,363.836 215.200,364.125 215.200 C 364.413 215.200,365.036 214.840,365.508 214.400 C 365.980 213.960,366.644 213.600,366.983 213.600 C 367.322 213.600,367.600 213.420,367.600 213.200 C 367.600 212.980,367.870 212.800,368.200 212.800 C 368.530 212.800,368.800 212.620,368.800 212.400 C 368.800 212.180,369.070 212.000,369.400 212.000 C 369.730 212.000,370.000 211.864,370.000 211.698 C 370.000 211.531,370.585 211.140,371.300 210.828 C 372.015 210.516,372.870 209.976,373.200 209.628 C 373.530 209.279,374.275 208.751,374.856 208.453 C 375.437 208.156,376.142 207.482,376.424 206.956 C 376.705 206.430,377.085 206.000,377.268 206.000 C 377.450 206.000,377.600 205.730,377.600 205.400 C 377.600 205.070,377.780 204.800,378.000 204.800 C 378.220 204.800,378.400 204.350,378.400 203.800 C 378.400 203.250,378.580 202.800,378.800 202.800 C 379.324 202.800,379.324 197.724,378.800 197.400 C 378.580 197.264,378.400 196.747,378.400 196.252 C 378.400 195.756,378.040 194.964,377.600 194.492 C 377.160 194.020,376.800 193.523,376.800 193.388 C 376.800 193.022,375.708 192.000,375.317 192.000 C 375.130 192.000,374.717 191.640,374.400 191.200 C 374.083 190.760,373.593 190.400,373.312 190.400 C 373.030 190.400,372.800 190.220,372.800 190.000 C 372.800 189.780,372.530 189.600,372.200 189.600 C 371.870 189.600,371.600 189.420,371.600 189.200 C 371.600 188.980,371.240 188.800,370.800 188.800 C 370.360 188.800,370.000 188.642,370.000 188.449 C 370.000 188.255,369.460 187.873,368.800 187.600 C 368.140 187.327,367.600 186.945,367.600 186.751 C 367.600 186.558,367.280 186.400,366.888 186.400 C 366.497 186.400,365.917 186.040,365.600 185.600 C 365.283 185.160,364.703 184.800,364.312 184.800 C 363.920 184.800,363.600 184.620,363.600 184.400 C 363.600 184.180,363.280 184.000,362.888 184.000 C 362.497 184.000,361.917 183.640,361.600 183.200 C 361.283 182.760,360.703 182.400,360.312 182.400 C 359.920 182.400,359.600 182.220,359.600 182.000 C 359.600 181.780,359.407 181.600,359.172 181.600 C 358.937 181.600,357.959 181.060,357.000 180.400 C 356.041 179.740,355.161 179.200,355.046 179.200 C 354.930 179.200,354.172 178.750,353.362 178.200 C 352.551 177.650,351.553 177.200,351.144 177.200 C 350.735 177.200,350.400 177.020,350.400 176.800 C 350.400 176.580,350.130 176.400,349.800 176.400 C 349.470 176.400,349.200 176.220,349.200 176.000 C 349.200 175.780,348.930 175.600,348.600 175.600 C 348.270 175.600,348.000 175.420,348.000 175.200 C 348.000 174.980,347.640 174.800,347.200 174.800 C 346.760 174.800,346.400 174.620,346.400 174.400 C 346.400 173.368,342.591 174.850,342.067 176.086 C 341.993 176.258,341.578 176.400,341.143 176.400 C 340.708 176.400,340.464 176.580,340.600 176.800 C 340.736 177.020,340.630 177.200,340.363 177.200 C 339.600 177.200,335.600 179.255,335.600 179.647 C 335.600 179.841,335.240 180.000,334.800 180.000 C 334.360 180.000,334.000 180.180,334.000 180.400 C 334.000 180.620,333.730 180.800,333.400 180.800 C 333.070 180.800,332.800 180.980,332.800 181.200 C 332.800 181.420,332.530 181.600,332.200 181.600 C 331.870 181.600,331.597 181.735,331.594 181.900 C 331.590 182.065,330.690 182.640,329.594 183.179 C 328.497 183.717,327.600 184.302,327.600 184.479 C 327.600 184.655,327.345 184.800,327.033 184.800 C 326.722 184.800,326.407 184.966,326.333 185.170 C 326.260 185.373,325.937 185.598,325.616 185.670 C 325.294 185.741,324.675 186.115,324.240 186.500 C 323.805 186.885,323.253 187.200,323.013 187.200 C 322.773 187.200,322.317 187.560,322.000 188.000 C 321.683 188.440,321.191 188.800,320.906 188.800 C 320.194 188.800,318.750 189.647,317.904 190.561 C 317.447 191.056,317.200 191.139,317.200 190.800 C 317.200 190.491,316.895 190.630,316.453 191.139 C 316.042 191.612,315.478 192.000,315.200 192.000 C 314.922 192.000,314.403 192.331,314.047 192.736 C 313.691 193.141,312.887 193.599,312.260 193.754 C 311.309 193.989,309.162 195.238,308.400 196.000 C 307.955 196.445,306.378 197.200,305.894 197.200 C 305.609 197.200,305.117 197.560,304.800 198.000 C 304.483 198.440,303.903 198.800,303.512 198.800 C 303.120 198.800,302.800 198.980,302.800 199.200 C 302.800 199.420,302.506 199.600,302.147 199.600 C 301.788 199.600,301.203 199.918,300.847 200.307 C 300.491 200.696,299.345 201.444,298.300 201.970 C 297.255 202.496,296.400 203.077,296.400 203.263 C 296.400 203.448,296.040 203.600,295.600 203.600 C 295.160 203.600,294.800 203.780,294.800 204.000 C 294.800 204.220,294.570 204.400,294.288 204.400 C 294.007 204.400,293.517 204.760,293.200 205.200 C 292.883 205.640,292.303 206.000,291.912 206.000 C 291.520 206.000,291.200 206.180,291.200 206.400 C 291.200 206.620,290.880 206.800,290.488 206.800 C 290.097 206.800,289.517 207.160,289.200 207.600 C 288.883 208.040,288.303 208.400,287.912 208.400 C 287.520 208.400,287.200 208.559,287.200 208.754 C 287.200 209.150,284.479 210.533,283.700 210.533 C 283.425 210.533,283.200 210.683,283.200 210.867 C 283.200 211.050,282.964 211.200,282.675 211.200 C 282.387 211.200,281.764 211.560,281.292 212.000 C 280.820 212.440,280.156 212.800,279.817 212.800 C 279.478 212.800,279.200 212.980,279.200 213.200 C 279.200 213.420,278.958 213.600,278.662 213.600 C 278.366 213.600,277.798 213.960,277.400 214.400 C 277.002 214.840,276.434 215.200,276.138 215.200 C 275.842 215.200,275.600 215.380,275.600 215.600 C 275.600 215.820,275.229 216.000,274.776 216.000 C 274.323 216.000,274.045 216.150,274.158 216.332 C 274.271 216.515,273.742 216.909,272.982 217.207 C 272.222 217.505,271.600 217.896,271.600 218.075 C 271.600 218.254,271.322 218.400,270.983 218.400 C 270.644 218.400,269.980 218.760,269.508 219.200 C 269.036 219.640,268.413 220.000,268.125 220.000 C 267.836 220.000,267.600 220.180,267.600 220.400 C 267.600 220.620,267.322 220.800,266.983 220.800 C 266.644 220.800,266.006 221.136,265.566 221.546 C 265.125 221.957,263.971 222.701,263.000 223.200 C 262.029 223.699,260.875 224.443,260.434 224.854 C 259.994 225.264,259.438 225.600,259.200 225.600 C 258.962 225.600,258.390 225.951,257.929 226.380 C 257.469 226.809,256.601 227.268,256.000 227.400 C 255.399 227.532,254.531 227.991,254.071 228.420 C 253.610 228.849,252.971 229.200,252.650 229.200 C 252.329 229.200,252.007 229.367,251.933 229.570 C 251.860 229.774,251.530 229.999,251.200 230.070 C 250.870 230.142,250.309 230.515,249.953 230.900 C 249.597 231.285,249.027 231.600,248.686 231.600 C 248.346 231.600,248.007 231.735,247.933 231.900 C 247.766 232.276,245.636 233.575,244.700 233.871 C 244.315 233.993,244.000 234.252,244.000 234.447 C 244.000 234.641,243.719 234.800,243.376 234.800 C 243.033 234.800,242.864 234.980,243.000 235.200 C 243.136 235.420,242.911 235.600,242.499 235.600 C 242.088 235.600,241.364 235.960,240.892 236.400 C 240.420 236.840,239.756 237.200,239.417 237.200 C 239.078 237.200,238.800 237.380,238.800 237.600 C 238.800 237.820,238.564 238.000,238.275 238.000 C 237.987 238.000,237.364 238.360,236.892 238.800 C 236.420 239.240,235.745 239.600,235.393 239.600 C 235.041 239.600,234.864 239.780,235.000 240.000 C 235.136 240.220,234.877 240.400,234.424 240.400 C 233.971 240.400,233.600 240.580,233.600 240.800 C 233.600 241.020,233.330 241.200,233.000 241.200 C 232.670 241.200,232.400 241.380,232.400 241.600 C 232.400 241.820,232.040 242.000,231.600 242.000 C 231.160 242.000,230.800 242.180,230.800 242.400 C 230.800 242.620,230.530 242.800,230.200 242.800 C 229.870 242.800,229.600 242.966,229.600 243.168 C 229.600 243.371,229.060 243.655,228.400 243.800 C 227.740 243.945,227.200 244.217,227.200 244.405 C 227.200 244.593,226.841 244.860,226.402 244.999 C 225.964 245.138,225.372 245.466,225.087 245.726 C 224.344 246.406,222.884 247.200,222.377 247.200 C 222.138 247.200,221.671 247.472,221.339 247.804 C 221.007 248.136,220.570 248.305,220.368 248.180 C 220.165 248.055,220.000 248.143,220.000 248.376 C 220.000 248.609,219.640 248.800,219.200 248.800 C 218.760 248.800,218.400 248.980,218.400 249.200 C 218.400 249.420,217.860 249.600,217.200 249.600 C 216.540 249.600,216.000 249.780,216.000 250.000 C 216.000 250.220,215.561 250.400,215.024 250.400 C 214.487 250.400,213.936 250.580,213.800 250.800 C 213.664 251.020,212.933 251.200,212.176 251.200 C 211.419 251.200,210.800 251.380,210.800 251.600 C 210.800 251.820,209.900 252.000,208.800 252.000 C 207.700 252.000,206.800 252.180,206.800 252.400 C 206.800 252.651,204.267 252.800,200.000 252.800 C 195.733 252.800,193.200 252.651,193.200 252.400 C 193.200 252.180,192.199 252.000,190.976 252.000 C 189.596 252.000,188.847 251.848,189.000 251.600 C 189.147 251.362,188.671 251.200,187.824 251.200 C 187.041 251.200,186.400 251.020,186.400 250.800 C 186.400 250.580,185.860 250.400,185.200 250.400 C 184.540 250.400,184.000 250.259,184.000 250.087 C 184.000 249.915,183.505 249.734,182.900 249.684 C 182.295 249.634,181.740 249.415,181.667 249.197 C 181.593 248.978,181.188 248.800,180.767 248.800 C 180.345 248.800,180.000 248.620,180.000 248.400 C 180.000 248.180,179.640 248.000,179.200 248.000 C 178.760 248.000,178.400 247.820,178.400 247.600 C 178.400 247.380,178.040 247.200,177.600 247.200 C 177.160 247.200,176.800 247.020,176.800 246.800 C 176.800 246.580,176.455 246.400,176.033 246.400 C 175.612 246.400,175.207 246.265,175.133 246.100 C 174.888 245.547,172.491 244.038,171.440 243.774 C 170.868 243.631,170.400 243.353,170.400 243.157 C 170.400 242.960,170.074 242.800,169.675 242.800 C 169.277 242.800,168.593 242.485,168.155 242.100 C 167.408 241.443,166.935 241.141,164.700 239.900 C 164.205 239.625,163.710 239.310,163.600 239.200 C 163.204 238.804,160.985 237.546,160.300 237.329 C 159.915 237.207,159.600 236.948,159.600 236.753 C 159.600 236.559,159.412 236.400,159.183 236.400 C 158.954 236.400,158.380 236.040,157.908 235.600 C 157.436 235.160,156.813 234.800,156.525 234.800 C 156.236 234.800,156.000 234.620,156.000 234.400 C 156.000 234.180,155.640 234.000,155.200 234.000 C 154.760 234.000,154.400 233.820,154.400 233.600 C 154.400 233.380,154.119 233.200,153.776 233.200 C 153.433 233.200,153.267 233.016,153.406 232.790 C 153.545 232.565,153.481 232.430,153.263 232.490 C 152.777 232.625,149.600 230.730,149.600 230.306 C 149.600 230.138,149.328 230.000,148.995 230.000 C 148.334 230.000,146.940 229.284,146.099 228.512 C 145.807 228.244,144.675 227.615,143.584 227.115 C 142.493 226.614,141.600 226.069,141.600 225.902 C 141.600 225.736,141.330 225.600,141.000 225.600 C 140.670 225.600,140.400 225.420,140.400 225.200 C 140.400 224.980,140.164 224.800,139.875 224.800 C 139.587 224.800,138.995 224.485,138.560 224.100 C 138.125 223.715,137.507 223.341,137.188 223.268 C 136.869 223.195,136.516 223.015,136.404 222.867 C 136.292 222.720,135.705 222.344,135.100 222.032 C 134.495 221.720,134.000 221.315,134.000 221.132 C 134.000 220.950,133.640 220.800,133.200 220.800 C 132.760 220.800,132.399 220.665,132.397 220.500 C 132.393 220.120,130.442 219.202,129.620 219.194 C 129.074 219.188,129.071 219.142,129.600 218.800 C 130.085 218.486,130.028 218.411,129.300 218.406 C 128.805 218.403,128.400 218.220,128.400 218.000 C 128.400 217.780,128.164 217.600,127.875 217.600 C 127.587 217.600,127.002 217.275,126.575 216.878 C 126.149 216.480,125.215 215.897,124.500 215.580 C 123.785 215.264,123.200 214.897,123.200 214.765 C 123.200 214.634,122.345 214.093,121.300 213.563 C 120.255 213.034,119.051 212.286,118.625 211.901 C 118.198 211.515,117.613 211.200,117.325 211.200 C 117.036 211.200,116.800 211.020,116.800 210.800 C 116.800 210.580,116.536 210.400,116.214 210.400 C 115.401 210.400,112.800 209.124,112.800 208.726 C 112.800 208.547,112.506 208.400,112.147 208.400 C 111.788 208.400,111.158 208.012,110.747 207.539 C 110.305 207.030,110.000 206.891,110.000 207.200 C 110.000 207.509,109.695 207.370,109.253 206.861 C 108.842 206.388,108.385 206.000,108.236 206.000 C 108.088 206.000,107.580 205.640,107.108 205.200 C 106.636 204.760,106.013 204.400,105.725 204.400 C 105.436 204.400,105.200 204.220,105.200 204.000 C 105.200 203.780,104.880 203.600,104.488 203.600 C 104.097 203.600,103.517 203.240,103.200 202.800 C 102.883 202.360,102.303 202.000,101.912 202.000 C 101.520 202.000,101.200 201.820,101.200 201.600 C 101.200 201.380,100.880 201.200,100.488 201.200 C 100.097 201.200,99.517 200.840,99.200 200.400 C 98.883 199.960,98.303 199.600,97.912 199.600 C 97.520 199.600,97.200 199.420,97.200 199.200 C 97.200 198.980,96.880 198.800,96.488 198.800 C 96.097 198.800,95.517 198.440,95.200 198.000 C 94.883 197.560,94.303 197.200,93.912 197.200 C 93.520 197.200,93.200 197.020,93.200 196.800 C 93.200 196.580,92.840 196.400,92.400 196.400 C 91.960 196.400,91.600 196.220,91.600 196.000 C 91.600 195.780,91.330 195.600,91.000 195.600 C 90.670 195.600,90.400 195.433,90.400 195.229 C 90.400 195.025,89.680 194.540,88.800 194.152 C 87.920 193.764,87.200 193.301,87.200 193.123 C 87.200 192.945,86.840 192.800,86.400 192.800 C 85.960 192.800,85.600 192.620,85.600 192.400 C 85.600 192.180,85.322 192.000,84.983 192.000 C 84.644 192.000,83.980 191.640,83.508 191.200 C 83.036 190.760,82.413 190.400,82.125 190.400 C 81.836 190.400,81.600 190.220,81.600 190.000 C 81.600 189.780,81.364 189.600,81.075 189.600 C 80.787 189.600,80.164 189.240,79.692 188.800 C 79.220 188.360,78.556 188.000,78.217 188.000 C 77.878 188.000,77.600 187.820,77.600 187.600 C 77.600 187.380,77.364 187.200,77.075 187.200 C 76.787 187.200,76.164 186.840,75.692 186.400 C 75.220 185.960,74.545 185.600,74.193 185.600 C 73.841 185.600,73.664 185.420,73.800 185.200 C 73.936 184.980,73.759 184.800,73.407 184.800 C 73.055 184.800,72.380 184.440,71.908 184.000 C 71.436 183.560,70.813 183.200,70.525 183.200 C 70.236 183.200,70.000 183.064,70.000 182.898 C 70.000 182.535,67.540 181.379,67.070 181.521 C 66.889 181.575,66.855 181.435,66.994 181.210 C 67.133 180.984,66.982 180.800,66.657 180.800 C 66.332 180.800,66.007 180.665,65.933 180.500 C 65.766 180.124,63.636 178.825,62.700 178.529 C 62.315 178.407,62.000 178.156,62.000 177.971 C 62.000 177.787,61.366 177.517,60.590 177.372 C 59.815 177.226,58.960 176.813,58.690 176.454 C 57.656 175.075,53.600 173.379,53.600 174.325 " stroke="none" fill="#359455" fill-rule="evenodd"></path><path id="path2" d="M51.800 246.535 C 50.920 247.011,50.140 247.535,50.067 247.700 C 49.993 247.865,49.678 248.000,49.367 248.000 C 49.055 248.000,48.800 248.180,48.800 248.400 C 48.800 248.620,48.532 248.800,48.205 248.800 C 47.657 248.800,46.722 249.430,45.384 250.700 C 45.094 250.975,44.574 251.200,44.229 251.200 C 43.883 251.200,43.600 251.380,43.600 251.600 C 43.600 251.820,43.280 252.000,42.888 252.000 C 42.497 252.000,41.917 252.360,41.600 252.800 C 41.283 253.240,40.703 253.600,40.312 253.600 C 39.920 253.600,39.600 253.780,39.600 254.000 C 39.600 254.220,39.364 254.400,39.075 254.400 C 38.787 254.400,38.164 254.760,37.692 255.200 C 37.220 255.640,36.556 256.000,36.217 256.000 C 35.878 256.000,35.600 256.180,35.600 256.400 C 35.600 256.620,35.364 256.800,35.075 256.800 C 34.787 256.800,34.193 257.115,33.755 257.500 C 32.630 258.489,31.314 259.200,30.605 259.200 C 30.272 259.200,30.000 259.362,30.000 259.561 C 30.000 259.759,29.458 260.111,28.795 260.342 C 28.132 260.573,27.483 261.041,27.352 261.381 C 27.221 261.721,26.892 262.000,26.621 262.000 C 25.877 262.000,22.400 265.427,22.400 266.160 C 22.400 266.512,22.220 266.800,22.000 266.800 C 21.780 266.800,21.600 267.160,21.600 267.600 C 21.600 268.040,21.420 268.400,21.200 268.400 C 20.969 268.400,20.800 269.667,20.800 271.400 C 20.800 273.133,20.969 274.400,21.200 274.400 C 21.420 274.400,21.600 274.760,21.600 275.200 C 21.600 275.640,21.780 276.000,22.000 276.000 C 22.220 276.000,22.400 276.275,22.400 276.611 C 22.400 277.404,25.796 280.800,26.589 280.800 C 26.925 280.800,27.200 280.980,27.200 281.200 C 27.200 281.420,27.430 281.600,27.712 281.600 C 27.993 281.600,28.483 281.960,28.800 282.400 C 29.117 282.840,29.624 283.200,29.927 283.200 C 30.513 283.200,32.910 284.759,33.133 285.286 C 33.207 285.458,33.612 285.600,34.033 285.600 C 34.455 285.600,34.800 285.780,34.800 286.000 C 34.800 286.220,35.036 286.400,35.325 286.400 C 35.613 286.400,36.236 286.760,36.708 287.200 C 37.180 287.640,37.844 288.000,38.183 288.000 C 38.522 288.000,38.800 288.142,38.800 288.316 C 38.800 288.585,40.593 289.641,44.027 291.395 C 44.452 291.612,44.800 291.927,44.800 292.095 C 44.800 292.263,45.160 292.400,45.600 292.400 C 46.040 292.400,46.400 292.580,46.400 292.800 C 46.400 293.020,46.670 293.200,47.000 293.200 C 47.330 293.200,47.600 293.346,47.600 293.525 C 47.600 293.704,48.230 294.098,49.000 294.400 C 49.770 294.702,50.400 295.096,50.400 295.275 C 50.400 295.454,50.771 295.600,51.224 295.600 C 51.677 295.600,51.936 295.780,51.800 296.000 C 51.664 296.220,51.833 296.400,52.176 296.400 C 52.519 296.400,52.800 296.580,52.800 296.800 C 52.800 297.020,53.078 297.200,53.417 297.200 C 53.756 297.200,54.420 297.560,54.892 298.000 C 55.364 298.440,55.987 298.800,56.275 298.800 C 56.564 298.800,56.800 298.980,56.800 299.200 C 56.800 299.420,57.160 299.600,57.600 299.600 C 58.040 299.600,58.400 299.780,58.400 300.000 C 58.400 300.220,58.670 300.400,59.000 300.400 C 59.330 300.400,59.600 300.580,59.600 300.800 C 59.600 301.020,59.870 301.200,60.200 301.200 C 60.530 301.200,60.800 301.380,60.800 301.600 C 60.800 301.820,61.070 302.000,61.400 302.000 C 61.730 302.000,62.000 302.180,62.000 302.400 C 62.000 302.620,62.278 302.800,62.617 302.800 C 62.956 302.800,63.620 303.160,64.092 303.600 C 64.564 304.040,65.187 304.400,65.475 304.400 C 65.764 304.400,66.000 304.580,66.000 304.800 C 66.000 305.020,66.360 305.200,66.800 305.200 C 67.240 305.200,67.600 305.335,67.600 305.501 C 67.600 305.666,68.455 306.248,69.500 306.795 C 70.545 307.341,71.638 308.016,71.929 308.294 C 72.219 308.572,72.765 308.800,73.140 308.800 C 73.516 308.800,74.083 309.160,74.400 309.600 C 74.717 310.040,75.297 310.400,75.688 310.400 C 76.080 310.400,76.400 310.580,76.400 310.800 C 76.400 311.020,76.670 311.200,77.000 311.200 C 77.330 311.200,77.600 311.359,77.600 311.553 C 77.600 311.748,77.915 312.007,78.300 312.129 C 78.987 312.346,81.206 313.605,81.600 314.001 C 81.710 314.111,82.295 314.456,82.900 314.768 C 83.505 315.080,84.000 315.485,84.000 315.668 C 84.000 315.850,84.360 316.000,84.800 316.000 C 85.240 316.000,85.600 316.180,85.600 316.400 C 85.600 316.620,85.836 316.800,86.125 316.800 C 86.413 316.800,87.036 317.160,87.508 317.600 C 87.980 318.040,88.644 318.400,88.983 318.400 C 89.322 318.400,89.600 318.580,89.600 318.800 C 89.600 319.020,89.836 319.200,90.125 319.200 C 90.413 319.200,91.036 319.560,91.508 320.000 C 91.980 320.440,92.644 320.800,92.983 320.800 C 93.322 320.800,93.600 320.980,93.600 321.200 C 93.600 321.420,93.870 321.600,94.200 321.600 C 94.530 321.600,94.800 321.780,94.800 322.000 C 94.800 322.220,94.987 322.400,95.216 322.400 C 95.444 322.400,96.567 323.030,97.710 323.800 C 98.854 324.570,100.107 325.200,100.495 325.200 C 100.883 325.200,101.200 325.380,101.200 325.600 C 101.200 325.820,101.436 326.000,101.725 326.000 C 102.013 326.000,102.636 326.360,103.108 326.800 C 103.580 327.240,104.244 327.600,104.583 327.600 C 104.922 327.600,105.200 327.780,105.200 328.000 C 105.200 328.220,105.436 328.400,105.725 328.400 C 106.013 328.400,106.636 328.760,107.108 329.200 C 107.580 329.640,108.244 330.000,108.583 330.000 C 108.922 330.000,109.200 330.180,109.200 330.400 C 109.200 330.620,109.470 330.800,109.800 330.800 C 110.130 330.800,110.400 330.980,110.400 331.200 C 110.400 331.420,110.670 331.600,111.000 331.600 C 111.330 331.600,111.600 331.780,111.600 332.000 C 111.600 332.220,111.870 332.400,112.200 332.400 C 112.530 332.400,112.800 332.580,112.800 332.800 C 112.800 333.020,113.078 333.200,113.417 333.200 C 113.756 333.200,114.420 333.560,114.892 334.000 C 115.364 334.440,115.987 334.800,116.275 334.800 C 116.564 334.800,116.800 334.959,116.800 335.153 C 116.800 335.348,117.115 335.607,117.500 335.729 C 118.185 335.946,120.404 337.204,120.800 337.600 C 120.910 337.710,121.405 338.025,121.900 338.300 C 122.395 338.575,123.205 339.025,123.700 339.300 C 124.195 339.575,124.690 339.892,124.800 340.004 C 124.910 340.116,125.720 340.566,126.600 341.004 C 127.480 341.442,128.290 341.890,128.400 342.000 C 128.796 342.396,131.015 343.654,131.700 343.871 C 132.085 343.993,132.400 344.252,132.400 344.447 C 132.400 344.641,132.636 344.800,132.925 344.800 C 133.213 344.800,133.836 345.160,134.308 345.600 C 134.780 346.040,135.444 346.400,135.783 346.400 C 136.122 346.400,136.400 346.580,136.400 346.800 C 136.400 347.020,136.636 347.200,136.925 347.200 C 137.213 347.200,137.836 347.560,138.308 348.000 C 138.780 348.440,139.444 348.800,139.783 348.800 C 140.122 348.800,140.400 348.980,140.400 349.200 C 140.400 349.420,140.636 349.600,140.925 349.600 C 141.213 349.600,141.836 349.960,142.308 350.400 C 142.780 350.840,143.354 351.200,143.583 351.200 C 143.812 351.200,144.000 351.380,144.000 351.600 C 144.000 351.820,144.278 352.000,144.617 352.000 C 144.956 352.000,145.620 352.360,146.092 352.800 C 146.564 353.240,147.187 353.600,147.475 353.600 C 147.764 353.600,148.000 353.780,148.000 354.000 C 148.000 354.220,148.360 354.400,148.800 354.400 C 149.240 354.400,149.600 354.535,149.600 354.701 C 149.600 354.866,150.455 355.447,151.500 355.991 C 152.545 356.535,153.490 357.101,153.600 357.249 C 153.710 357.397,154.835 358.007,156.100 358.606 C 157.365 359.204,158.400 359.853,158.400 360.047 C 158.400 360.241,158.678 360.400,159.017 360.400 C 159.356 360.400,160.020 360.760,160.492 361.200 C 160.964 361.640,161.587 362.000,161.875 362.000 C 162.164 362.000,162.400 362.180,162.400 362.400 C 162.400 362.620,162.670 362.800,163.000 362.800 C 163.330 362.800,163.600 362.959,163.600 363.153 C 163.600 363.348,163.915 363.607,164.300 363.729 C 164.987 363.946,167.206 365.205,167.600 365.601 C 167.710 365.711,168.295 366.056,168.900 366.368 C 169.505 366.680,170.000 367.085,170.000 367.268 C 170.000 367.450,170.360 367.600,170.800 367.600 C 171.240 367.600,171.600 367.780,171.600 368.000 C 171.600 368.220,171.836 368.400,172.125 368.400 C 172.413 368.400,173.036 368.760,173.508 369.200 C 173.980 369.640,174.644 370.000,174.983 370.000 C 175.322 370.000,175.600 370.180,175.600 370.400 C 175.600 370.620,175.848 370.800,176.151 370.800 C 176.454 370.800,176.929 371.073,177.206 371.407 C 177.483 371.741,178.360 372.321,179.155 372.694 C 179.950 373.068,180.949 373.695,181.375 374.087 C 181.802 374.479,182.343 374.800,182.579 374.800 C 182.814 374.800,183.852 375.250,184.885 375.800 C 185.918 376.350,187.042 376.800,187.382 376.800 C 187.722 376.800,188.000 376.980,188.000 377.200 C 188.000 377.420,188.540 377.600,189.200 377.600 C 189.860 377.600,190.400 377.780,190.400 378.000 C 190.400 378.220,191.300 378.400,192.400 378.400 C 193.500 378.400,194.400 378.580,194.400 378.800 C 194.400 379.048,196.525 379.200,199.976 379.200 C 203.263 379.200,205.654 379.036,205.800 378.800 C 205.936 378.580,206.847 378.400,207.824 378.400 C 208.801 378.400,209.600 378.220,209.600 378.000 C 209.600 377.780,210.140 377.600,210.800 377.600 C 211.460 377.600,212.000 377.420,212.000 377.200 C 212.000 376.980,212.226 376.800,212.501 376.800 C 213.447 376.800,222.914 371.791,223.133 371.175 C 223.207 370.969,223.444 370.800,223.661 370.800 C 223.878 370.800,224.841 370.260,225.800 369.600 C 226.759 368.940,227.722 368.400,227.939 368.400 C 228.156 368.400,228.393 368.265,228.467 368.100 C 228.634 367.724,230.764 366.425,231.700 366.129 C 232.085 366.007,232.400 365.748,232.400 365.553 C 232.400 365.359,232.760 365.200,233.200 365.200 C 233.640 365.200,234.000 365.050,234.000 364.868 C 234.000 364.685,234.495 364.280,235.100 363.968 C 235.705 363.656,236.290 363.311,236.400 363.201 C 236.794 362.805,239.013 361.546,239.700 361.329 C 240.085 361.207,240.400 360.948,240.400 360.753 C 240.400 360.559,240.655 360.400,240.967 360.400 C 241.278 360.400,241.593 360.265,241.667 360.100 C 241.740 359.935,242.790 359.274,244.000 358.631 C 245.210 357.989,246.290 357.359,246.400 357.231 C 246.780 356.791,248.391 356.000,248.906 356.000 C 249.191 356.000,249.683 355.640,250.000 355.200 C 250.317 354.760,250.897 354.400,251.288 354.400 C 251.680 354.400,252.000 354.220,252.000 354.000 C 252.000 353.780,252.320 353.600,252.712 353.600 C 253.103 353.600,253.683 353.240,254.000 352.800 C 254.317 352.360,254.897 352.000,255.288 352.000 C 255.680 352.000,256.000 351.820,256.000 351.600 C 256.000 351.380,256.270 351.200,256.600 351.200 C 256.930 351.200,257.200 351.020,257.200 350.800 C 257.200 350.580,257.470 350.400,257.800 350.400 C 258.130 350.400,258.400 350.220,258.400 350.000 C 258.400 349.780,258.670 349.600,259.000 349.600 C 259.330 349.600,259.600 349.420,259.600 349.200 C 259.600 348.980,259.878 348.800,260.217 348.800 C 260.556 348.800,261.220 348.440,261.692 348.000 C 262.164 347.560,262.787 347.200,263.075 347.200 C 263.364 347.200,263.600 347.020,263.600 346.800 C 263.600 346.580,263.878 346.400,264.217 346.400 C 264.556 346.400,265.220 346.040,265.692 345.600 C 266.164 345.160,266.787 344.800,267.075 344.800 C 267.364 344.800,267.600 344.620,267.600 344.400 C 267.600 344.180,267.878 344.000,268.217 344.000 C 268.556 344.000,269.220 343.640,269.692 343.200 C 270.164 342.760,270.787 342.400,271.075 342.400 C 271.364 342.400,271.600 342.220,271.600 342.000 C 271.600 341.780,271.938 341.600,272.351 341.600 C 272.764 341.600,273.326 341.330,273.600 341.000 C 273.874 340.670,274.331 340.400,274.616 340.400 C 274.900 340.400,275.193 340.265,275.267 340.100 C 275.434 339.724,277.564 338.425,278.500 338.129 C 278.885 338.007,279.200 337.748,279.200 337.553 C 279.200 337.359,279.478 337.200,279.817 337.200 C 280.156 337.200,280.820 336.840,281.292 336.400 C 281.764 335.960,282.387 335.600,282.675 335.600 C 282.964 335.600,283.200 335.420,283.200 335.200 C 283.200 334.980,283.478 334.800,283.817 334.800 C 284.156 334.800,284.820 334.440,285.292 334.000 C 285.764 333.560,286.387 333.200,286.675 333.200 C 286.964 333.200,287.200 333.020,287.200 332.800 C 287.200 332.580,287.520 332.400,287.912 332.400 C 288.303 332.400,288.883 332.040,289.200 331.600 C 289.517 331.160,290.097 330.800,290.488 330.800 C 290.880 330.800,291.200 330.620,291.200 330.400 C 291.200 330.180,291.388 330.000,291.617 330.000 C 291.846 330.000,292.420 329.640,292.892 329.200 C 293.364 328.760,293.987 328.400,294.275 328.400 C 294.564 328.400,294.800 328.220,294.800 328.000 C 294.800 327.780,295.078 327.600,295.417 327.600 C 295.756 327.600,296.420 327.240,296.892 326.800 C 297.364 326.360,297.987 326.000,298.275 326.000 C 298.564 326.000,298.800 325.820,298.800 325.600 C 298.800 325.380,299.079 325.200,299.420 325.200 C 300.042 325.200,302.426 324.102,302.800 323.643 C 303.054 323.332,307.188 320.800,307.443 320.800 C 307.548 320.800,308.020 320.440,308.492 320.000 C 308.964 319.560,309.587 319.200,309.875 319.200 C 310.164 319.200,310.400 319.020,310.400 318.800 C 310.400 318.580,310.678 318.400,311.017 318.400 C 311.356 318.400,312.020 318.040,312.492 317.600 C 312.964 317.160,313.587 316.800,313.875 316.800 C 314.164 316.800,314.400 316.620,314.400 316.400 C 314.400 316.180,314.678 316.000,315.017 316.000 C 315.356 316.000,316.020 315.640,316.492 315.200 C 316.964 314.760,317.587 314.400,317.875 314.400 C 318.164 314.400,318.400 314.220,318.400 314.000 C 318.400 313.780,318.678 313.600,319.017 313.600 C 319.356 313.600,320.020 313.240,320.492 312.800 C 320.964 312.360,321.587 312.000,321.875 312.000 C 322.164 312.000,322.400 311.820,322.400 311.600 C 322.400 311.380,322.670 311.200,323.000 311.200 C 323.330 311.200,323.600 311.020,323.600 310.800 C 323.600 310.580,323.870 310.400,324.200 310.400 C 324.530 310.400,324.800 310.220,324.800 310.000 C 324.800 309.780,325.070 309.600,325.400 309.600 C 325.730 309.600,326.000 309.420,326.000 309.200 C 326.000 308.980,326.347 308.800,326.771 308.800 C 327.196 308.800,327.813 308.530,328.143 308.200 C 328.473 307.870,329.026 307.600,329.371 307.600 C 329.717 307.600,330.000 307.455,330.000 307.279 C 330.000 307.102,330.897 306.517,331.994 305.979 C 333.090 305.440,333.990 304.865,333.994 304.700 C 333.997 304.535,334.320 304.400,334.712 304.400 C 335.103 304.400,335.683 304.040,336.000 303.600 C 336.317 303.160,336.897 302.800,337.288 302.800 C 337.680 302.800,338.000 302.620,338.000 302.400 C 338.000 302.180,338.320 302.000,338.712 302.000 C 339.103 302.000,339.683 301.640,340.000 301.200 C 340.317 300.760,340.807 300.400,341.088 300.400 C 341.370 300.400,341.600 300.220,341.600 300.000 C 341.600 299.780,341.960 299.600,342.400 299.600 C 342.840 299.600,343.200 299.420,343.200 299.200 C 343.200 298.980,343.470 298.800,343.800 298.800 C 344.130 298.800,344.400 298.620,344.400 298.400 C 344.400 298.180,344.670 298.000,345.000 298.000 C 345.330 298.000,345.600 297.820,345.600 297.600 C 345.600 297.380,345.960 297.200,346.400 297.200 C 346.840 297.200,347.200 297.020,347.200 296.800 C 347.200 296.580,347.436 296.400,347.725 296.400 C 348.013 296.400,348.636 296.040,349.108 295.600 C 349.580 295.160,350.244 294.800,350.583 294.800 C 350.922 294.800,351.200 294.620,351.200 294.400 C 351.200 294.180,351.481 294.000,351.824 294.000 C 352.167 294.000,352.336 293.820,352.200 293.600 C 352.064 293.380,352.323 293.200,352.776 293.200 C 353.229 293.200,353.600 293.020,353.600 292.800 C 353.600 292.580,353.960 292.400,354.400 292.400 C 354.840 292.400,355.200 292.247,355.200 292.060 C 355.200 291.873,356.010 291.387,357.000 290.978 C 357.990 290.570,358.800 290.115,358.800 289.967 C 358.800 289.818,359.340 289.473,360.000 289.200 C 360.660 288.927,361.203 288.590,361.206 288.451 C 361.210 288.313,362.110 287.760,363.206 287.221 C 364.303 286.683,365.200 286.098,365.200 285.921 C 365.200 285.745,365.478 285.600,365.817 285.600 C 366.156 285.600,366.820 285.240,367.292 284.800 C 367.764 284.360,368.387 284.000,368.675 284.000 C 368.964 284.000,369.200 283.841,369.200 283.647 C 369.200 283.452,369.515 283.187,369.900 283.058 C 371.211 282.616,373.179 281.313,372.923 281.056 C 372.782 280.915,372.938 280.800,373.270 280.800 C 374.095 280.800,377.600 277.432,377.600 276.640 C 377.600 276.288,377.780 276.000,378.000 276.000 C 378.220 276.000,378.400 275.640,378.400 275.200 C 378.400 274.760,378.580 274.400,378.800 274.400 C 379.031 274.400,379.200 273.133,379.200 271.400 C 379.200 269.667,379.031 268.400,378.800 268.400 C 378.580 268.400,378.400 268.040,378.400 267.600 C 378.400 267.160,378.220 266.800,378.000 266.800 C 377.780 266.800,377.600 266.524,377.600 266.187 C 377.600 264.945,373.633 261.543,370.300 259.926 C 369.255 259.419,368.400 258.869,368.400 258.702 C 368.400 258.536,368.122 258.400,367.783 258.400 C 367.444 258.400,366.780 258.040,366.308 257.600 C 365.836 257.160,365.213 256.800,364.925 256.800 C 364.636 256.800,364.400 256.620,364.400 256.400 C 364.400 256.180,364.080 256.000,363.688 256.000 C 363.297 256.000,362.717 255.640,362.400 255.200 C 362.083 254.760,361.503 254.400,361.112 254.400 C 360.720 254.400,360.400 254.220,360.400 254.000 C 360.400 253.780,360.106 253.600,359.747 253.600 C 359.388 253.600,358.803 253.284,358.447 252.897 C 358.091 252.511,357.260 251.926,356.600 251.598 C 355.940 251.270,355.310 250.898,355.200 250.771 C 355.090 250.644,354.190 250.104,353.200 249.570 C 352.210 249.037,351.174 248.387,350.898 248.126 C 350.621 247.866,350.036 247.538,349.598 247.399 C 349.159 247.260,348.800 246.978,348.800 246.773 C 348.800 246.568,348.440 246.400,348.000 246.400 C 347.560 246.400,347.200 246.220,347.200 246.000 C 347.200 244.922,341.816 246.465,341.267 247.700 C 341.193 247.865,340.788 248.000,340.367 248.000 C 339.945 248.000,339.600 248.150,339.600 248.332 C 339.600 248.515,339.105 248.920,338.500 249.232 C 337.895 249.545,337.160 250.027,336.868 250.304 C 336.575 250.581,336.170 250.705,335.968 250.580 C 335.765 250.455,335.600 250.513,335.600 250.709 C 335.600 250.905,335.105 251.320,334.500 251.632 C 333.895 251.944,333.310 252.289,333.200 252.399 C 332.806 252.795,330.587 254.054,329.900 254.271 C 329.515 254.393,329.200 254.652,329.200 254.847 C 329.200 255.041,329.012 255.200,328.783 255.200 C 328.554 255.200,327.980 255.560,327.508 256.000 C 327.036 256.440,326.413 256.800,326.125 256.800 C 325.836 256.800,325.600 256.980,325.600 257.200 C 325.600 257.420,325.322 257.600,324.983 257.600 C 324.644 257.600,323.980 257.960,323.508 258.400 C 323.036 258.840,322.413 259.200,322.125 259.200 C 321.836 259.200,321.600 259.380,321.600 259.600 C 321.600 259.820,321.253 260.000,320.829 260.000 C 320.404 260.000,319.787 260.270,319.457 260.600 C 319.127 260.930,318.574 261.200,318.229 261.200 C 317.883 261.200,317.600 261.358,317.600 261.551 C 317.600 261.745,317.060 262.127,316.400 262.400 C 315.740 262.673,315.200 263.055,315.200 263.249 C 315.200 263.442,314.840 263.600,314.400 263.600 C 313.960 263.600,313.600 263.780,313.600 264.000 C 313.600 264.220,313.370 264.400,313.088 264.400 C 312.807 264.400,312.317 264.760,312.000 265.200 C 311.683 265.640,311.103 266.000,310.712 266.000 C 310.320 266.000,310.000 266.180,310.000 266.400 C 310.000 266.620,309.722 266.800,309.383 266.800 C 309.044 266.800,308.380 267.160,307.908 267.600 C 307.436 268.040,306.813 268.400,306.525 268.400 C 306.236 268.400,306.000 268.580,306.000 268.800 C 306.000 269.020,305.722 269.200,305.383 269.200 C 305.044 269.200,304.380 269.560,303.908 270.000 C 303.436 270.440,302.813 270.800,302.525 270.800 C 302.236 270.800,302.000 270.980,302.000 271.200 C 302.000 271.420,301.680 271.600,301.288 271.600 C 300.897 271.600,300.317 271.960,300.000 272.400 C 299.683 272.840,299.103 273.200,298.712 273.200 C 298.320 273.200,298.000 273.380,298.000 273.600 C 298.000 273.820,297.764 274.000,297.475 274.000 C 297.187 274.000,296.564 274.360,296.092 274.800 C 295.620 275.240,294.956 275.600,294.617 275.600 C 294.278 275.600,294.000 275.780,294.000 276.000 C 294.000 276.220,293.730 276.400,293.400 276.400 C 293.070 276.400,292.800 276.535,292.799 276.700 C 292.799 276.865,291.719 277.526,290.399 278.170 C 289.080 278.813,288.000 279.488,288.000 279.670 C 288.000 279.851,287.640 280.000,287.200 280.000 C 286.760 280.000,286.400 280.180,286.400 280.400 C 286.400 280.620,286.207 280.800,285.972 280.800 C 285.737 280.800,284.792 281.301,283.872 281.912 C 282.952 282.524,281.705 283.274,281.100 283.580 C 280.495 283.885,280.000 284.285,280.000 284.468 C 280.000 284.650,279.640 284.800,279.200 284.800 C 278.760 284.800,278.400 284.980,278.400 285.200 C 278.400 285.420,278.212 285.600,277.983 285.600 C 277.754 285.600,277.180 285.960,276.708 286.400 C 276.236 286.840,275.613 287.200,275.325 287.200 C 275.036 287.200,274.800 287.380,274.800 287.600 C 274.800 287.820,274.522 288.000,274.183 288.000 C 273.844 288.000,273.180 288.360,272.708 288.800 C 272.236 289.240,271.613 289.600,271.325 289.600 C 271.036 289.600,270.800 289.780,270.800 290.000 C 270.800 290.220,270.522 290.400,270.183 290.400 C 269.844 290.400,269.180 290.760,268.708 291.200 C 268.236 291.640,267.613 292.000,267.325 292.000 C 267.036 292.000,266.800 292.180,266.800 292.400 C 266.800 292.620,266.440 292.800,266.000 292.800 C 265.560 292.800,265.200 292.968,265.200 293.173 C 265.200 293.378,264.795 293.673,264.300 293.828 C 263.805 293.983,262.648 294.625,261.728 295.255 C 260.808 295.885,259.863 296.400,259.628 296.400 C 259.393 296.400,259.200 296.559,259.200 296.753 C 259.200 296.948,258.885 297.207,258.500 297.329 C 257.815 297.546,255.596 298.804,255.200 299.200 C 254.804 299.596,252.585 300.854,251.900 301.071 C 251.515 301.193,251.200 301.452,251.200 301.647 C 251.200 301.841,250.922 302.000,250.583 302.000 C 250.244 302.000,249.580 302.360,249.108 302.800 C 248.636 303.240,248.013 303.600,247.725 303.600 C 247.436 303.600,247.200 303.780,247.200 304.000 C 247.200 304.220,246.930 304.400,246.600 304.400 C 246.270 304.400,246.000 304.580,246.000 304.800 C 246.000 305.020,245.730 305.200,245.400 305.200 C 245.070 305.200,244.800 305.380,244.800 305.600 C 244.800 305.820,244.530 306.000,244.200 306.000 C 243.870 306.000,243.600 306.180,243.600 306.400 C 243.600 306.620,243.322 306.800,242.983 306.800 C 242.644 306.800,241.980 307.160,241.508 307.600 C 241.036 308.040,240.413 308.400,240.125 308.400 C 239.836 308.400,239.600 308.580,239.600 308.800 C 239.600 309.020,239.240 309.200,238.800 309.200 C 238.360 309.200,238.000 309.335,237.999 309.500 C 237.999 309.665,236.919 310.326,235.599 310.970 C 234.280 311.613,233.200 312.288,233.200 312.470 C 233.200 312.651,232.922 312.800,232.583 312.800 C 232.244 312.800,231.580 313.160,231.108 313.600 C 230.636 314.040,230.013 314.400,229.725 314.400 C 229.436 314.400,229.200 314.580,229.200 314.800 C 229.200 315.020,228.840 315.200,228.400 315.200 C 227.960 315.200,227.600 315.380,227.600 315.600 C 227.600 315.820,227.330 316.000,227.000 316.000 C 226.670 316.000,226.400 316.180,226.400 316.400 C 226.400 316.620,226.130 316.800,225.800 316.800 C 225.470 316.800,225.200 316.980,225.200 317.200 C 225.200 317.420,224.930 317.600,224.600 317.600 C 224.270 317.600,224.000 317.780,224.000 318.000 C 224.000 318.220,223.640 318.400,223.200 318.400 C 222.760 318.400,222.400 318.580,222.400 318.800 C 222.400 319.020,222.040 319.200,221.600 319.200 C 221.160 319.200,220.800 319.380,220.800 319.600 C 220.800 319.820,220.440 320.000,220.000 320.000 C 219.560 320.000,219.200 320.180,219.200 320.400 C 219.200 320.620,218.660 320.800,218.000 320.800 C 217.340 320.800,216.800 320.980,216.800 321.200 C 216.800 321.420,216.451 321.600,216.024 321.600 C 215.597 321.600,215.136 321.780,215.000 322.000 C 214.864 322.220,214.234 322.400,213.600 322.400 C 212.966 322.400,212.336 322.580,212.200 322.800 C 212.064 323.020,211.153 323.200,210.176 323.200 C 209.199 323.200,208.400 323.380,208.400 323.600 C 208.400 323.854,205.333 324.000,200.000 324.000 C 194.667 324.000,191.600 323.854,191.600 323.600 C 191.600 323.380,190.878 323.200,189.995 323.200 C 189.112 323.200,188.077 323.038,187.695 322.839 C 187.313 322.640,186.190 322.249,185.200 321.969 C 184.210 321.690,183.229 321.312,183.020 321.130 C 182.811 320.949,182.226 320.800,181.720 320.800 C 181.214 320.800,180.800 320.620,180.800 320.400 C 180.800 320.180,180.440 320.000,180.000 320.000 C 179.560 320.000,179.200 319.820,179.200 319.600 C 179.200 319.380,178.840 319.200,178.400 319.200 C 177.960 319.200,177.600 319.020,177.600 318.800 C 177.600 318.580,177.240 318.400,176.800 318.400 C 176.360 318.400,176.000 318.220,176.000 318.000 C 176.000 317.780,175.730 317.600,175.400 317.600 C 175.070 317.600,174.800 317.420,174.800 317.200 C 174.800 316.980,174.530 316.800,174.200 316.800 C 173.870 316.800,173.600 316.620,173.600 316.400 C 173.600 316.180,173.330 316.000,173.000 316.000 C 172.670 316.000,172.400 315.820,172.400 315.600 C 172.400 315.380,172.122 315.200,171.783 315.200 C 171.444 315.200,170.780 314.840,170.308 314.400 C 169.836 313.960,169.213 313.600,168.925 313.600 C 168.636 313.600,168.400 313.420,168.400 313.200 C 168.400 312.980,168.040 312.800,167.600 312.800 C 167.160 312.800,166.800 312.651,166.800 312.470 C 166.800 312.288,165.720 311.613,164.401 310.970 C 163.081 310.326,162.001 309.665,162.001 309.500 C 162.000 309.335,161.640 309.200,161.200 309.200 C 160.760 309.200,160.400 309.020,160.400 308.800 C 160.400 308.580,160.164 308.400,159.875 308.400 C 159.587 308.400,159.002 308.085,158.575 307.700 C 158.149 307.315,157.308 306.746,156.707 306.436 C 156.105 306.126,155.258 305.541,154.823 305.136 C 154.389 304.731,153.756 304.400,153.417 304.400 C 153.078 304.400,152.800 304.220,152.800 304.000 C 152.800 303.780,152.564 303.600,152.275 303.600 C 151.987 303.600,151.364 303.240,150.892 302.800 C 150.420 302.360,149.771 302.000,149.450 302.000 C 149.129 302.000,148.807 301.865,148.733 301.700 C 148.566 301.324,146.436 300.025,145.500 299.729 C 145.115 299.607,144.800 299.348,144.800 299.153 C 144.800 298.959,144.607 298.800,144.372 298.800 C 144.137 298.800,143.159 298.260,142.200 297.600 C 141.241 296.940,140.263 296.400,140.028 296.400 C 139.793 296.400,139.600 296.220,139.600 296.000 C 139.600 295.780,139.330 295.600,139.000 295.600 C 138.670 295.600,138.400 295.457,138.400 295.282 C 138.400 295.107,137.590 294.630,136.600 294.222 C 135.610 293.813,134.800 293.327,134.800 293.140 C 134.800 292.953,134.440 292.800,134.000 292.800 C 133.560 292.800,133.200 292.620,133.200 292.400 C 133.200 292.180,132.964 292.000,132.675 292.000 C 132.387 292.000,131.764 291.640,131.292 291.200 C 130.820 290.760,130.156 290.400,129.817 290.400 C 129.478 290.400,129.200 290.220,129.200 290.000 C 129.200 289.780,128.964 289.600,128.675 289.600 C 128.387 289.600,127.764 289.240,127.292 288.800 C 126.820 288.360,126.156 288.000,125.817 288.000 C 125.478 288.000,125.200 287.820,125.200 287.600 C 125.200 287.380,124.930 287.200,124.600 287.200 C 124.270 287.200,124.000 287.020,124.000 286.800 C 124.000 286.580,123.730 286.400,123.400 286.400 C 123.070 286.400,122.800 286.220,122.800 286.000 C 122.800 285.780,122.530 285.600,122.200 285.600 C 121.870 285.600,121.600 285.420,121.600 285.200 C 121.600 284.980,121.364 284.800,121.075 284.800 C 120.787 284.800,120.164 284.440,119.692 284.000 C 119.220 283.560,118.556 283.200,118.217 283.200 C 117.878 283.200,117.600 283.020,117.600 282.800 C 117.600 282.580,117.364 282.400,117.075 282.400 C 116.787 282.400,116.195 282.085,115.760 281.700 C 115.325 281.315,114.706 280.941,114.384 280.870 C 114.063 280.798,113.740 280.573,113.667 280.370 C 113.593 280.166,113.188 280.000,112.767 280.000 C 112.345 280.000,112.000 279.842,112.000 279.649 C 112.000 279.455,111.460 279.073,110.800 278.800 C 110.140 278.527,109.600 278.159,109.600 277.983 C 109.600 277.807,109.060 277.545,108.400 277.400 C 107.740 277.255,107.200 276.971,107.200 276.768 C 107.200 276.566,106.930 276.400,106.600 276.400 C 106.270 276.400,106.000 276.220,106.000 276.000 C 106.000 275.780,105.680 275.600,105.288 275.600 C 104.897 275.600,104.317 275.240,104.000 274.800 C 103.683 274.360,103.103 274.000,102.712 274.000 C 102.320 274.000,102.000 273.820,102.000 273.600 C 102.000 273.380,101.680 273.200,101.288 273.200 C 100.897 273.200,100.317 272.840,100.000 272.400 C 99.683 271.960,99.118 271.600,98.745 271.600 C 98.372 271.600,98.007 271.465,97.933 271.300 C 97.766 270.924,95.636 269.625,94.700 269.329 C 94.315 269.207,94.000 268.948,94.000 268.753 C 94.000 268.559,93.807 268.400,93.572 268.400 C 93.337 268.400,92.359 267.860,91.400 267.200 C 90.441 266.540,89.463 266.000,89.228 266.000 C 88.993 266.000,88.800 265.820,88.800 265.600 C 88.800 265.380,88.530 265.200,88.200 265.200 C 87.870 265.200,87.600 265.054,87.600 264.875 C 87.600 264.696,86.970 264.302,86.200 264.000 C 85.430 263.698,84.800 263.326,84.800 263.174 C 84.800 263.022,84.260 262.673,83.600 262.400 C 82.940 262.127,82.400 261.745,82.400 261.551 C 82.400 261.358,82.117 261.200,81.771 261.200 C 81.426 261.200,80.873 260.930,80.543 260.600 C 80.213 260.270,79.596 260.000,79.171 260.000 C 78.747 260.000,78.400 259.820,78.400 259.600 C 78.400 259.380,78.130 259.200,77.800 259.200 C 77.470 259.200,77.200 259.020,77.200 258.800 C 77.200 258.580,76.930 258.400,76.600 258.400 C 76.270 258.400,76.000 258.220,76.000 258.000 C 76.000 257.780,75.730 257.600,75.400 257.600 C 75.070 257.600,74.800 257.454,74.800 257.275 C 74.800 257.096,74.178 256.705,73.418 256.407 C 72.658 256.109,72.129 255.715,72.242 255.532 C 72.355 255.350,72.122 255.196,71.724 255.191 C 71.326 255.186,70.550 254.830,70.000 254.400 C 69.450 253.970,68.764 253.614,68.476 253.609 C 68.188 253.604,68.064 253.420,68.200 253.200 C 68.336 252.980,68.077 252.800,67.624 252.800 C 67.171 252.800,66.800 252.620,66.800 252.400 C 66.800 252.180,66.564 252.000,66.275 252.000 C 65.987 252.000,65.364 251.640,64.892 251.200 C 64.420 250.760,63.829 250.400,63.578 250.400 C 63.064 250.400,60.671 248.796,60.467 248.314 C 60.393 248.142,59.988 248.000,59.567 248.000 C 59.145 248.000,58.800 247.820,58.800 247.600 C 58.800 247.380,58.530 247.200,58.200 247.200 C 57.870 247.200,57.599 247.065,57.597 246.900 C 57.583 245.579,53.989 245.352,51.800 246.535 " stroke="none" fill="#f47574" fill-rule="evenodd"></path></g></svg>